<svg width="220" height="200" viewBox="0 0 220 200" fill="none" xmlns="http://www.w3.org/2000/svg">
<path d="M47.7077 40.1187C47.6155 40.3688 47.5409 40.461 47.5541 40.5312C48.5019 44.7348 47.2952 45.8054 43.5524 47.5123C42.9995 47.7668 42.4203 47.9818 41.8323 48.1398C40.1737 48.5873 39.1996 49.5263 38.9363 51.321C38.7169 52.8173 37.8744 53.2604 36.4001 53.0279C33.605 52.5891 32.2711 49.7501 33.8376 47.3763C35.3031 45.1516 36.0271 42.7339 36.1807 40.0968C36.3343 37.4816 38.1816 35.9283 40.9459 36.038C42.1658 36.0862 43.4427 36.5996 44.3817 35.2218C44.6888 34.7699 45.3602 35.1165 45.8428 35.2833C50.7748 36.9814 54.6142 40.0222 57.4181 44.4539C59.397 47.5869 60.6344 50.9217 60.8757 54.6163C60.9459 55.722 61.1434 56.8673 60.3975 57.8809C60.0508 58.3504 60.3799 58.7936 60.6783 59.149C62.7055 61.5535 64.7415 63.9625 67.2821 65.8537C67.8613 66.2837 68.1333 66.6567 68.0148 67.3368C67.9227 67.8458 67.8788 68.3635 67.7603 68.8682C67.0012 72.0143 66.2333 72.3916 63.3286 71.0928C63.2145 71.0402 63.0741 71.0577 62.9073 71.0358C62.8678 71.593 63.311 71.7905 63.6138 71.9879C65.8472 73.4667 67.7647 75.3754 70.0991 76.7049C70.6783 77.034 71.1302 77.4509 70.924 78.1573C70.6827 78.9866 70.0201 78.5347 69.5023 78.5391C68.3746 78.5478 67.2513 78.6005 66.128 78.6137C61.569 78.6751 57.971 76.7444 55.132 73.2648C54.8424 72.9094 54.5528 72.5628 54.1316 72.0582C53.9297 73.7124 54.7459 74.7523 55.6542 75.6474C56.5186 76.5031 56.2509 76.8497 55.3382 77.3587C49.691 80.5092 43.4953 78.2846 39.7568 74.7567C38.8398 73.8923 38.9495 72.6066 38.6072 71.3254C38.2123 71.8431 38.3044 72.2951 38.3527 72.6944C38.8836 76.8936 37.4137 80.5048 34.8819 83.6773C33.017 86.0204 30.9723 88.2495 28.4975 90.0046C27.971 90.3776 27.8042 90.7901 27.8788 91.4351C28.1158 93.4886 28.3176 95.5465 28.4712 97.6088C28.5414 98.5522 28.8705 99.2982 29.4979 100C30.8757 101.545 32.1614 103.164 33.175 104.98C33.5611 105.678 33.6972 106.099 32.6309 106.029C31.3672 105.95 30.1079 106.196 28.8354 106.003C27.7867 105.845 27.2864 105.362 27.5409 104.305C27.892 102.852 27.5585 101.962 25.913 101.685C24.8731 101.51 24.5879 100.873 24.9784 99.7106C25.9218 96.8848 25.4391 94.0415 24.5616 91.2771C23.8946 89.1709 23.842 89.1885 25.5576 87.8063C28.7345 85.2525 29.1074 83.0542 26.9442 79.6404C25.0004 76.5777 23.9429 73.4096 24.6581 69.6317C25.6761 64.274 32.9424 60.6014 37.9973 62.3521C40.6256 63.2604 43.1399 63.2166 45.6234 61.8782C46.6853 61.3034 47.6068 60.597 48.1947 59.5439C50.5423 55.3403 51.1039 50.9568 49.4014 46.389C49.125 45.6475 49.1908 44.9147 49.1381 44.1731C49.0328 42.7339 48.7959 41.3342 47.7077 40.1187ZM31.275 64.7918C27.949 66.1213 26.2377 69.7852 26.8784 74.138C26.7906 70.2942 28.4624 67.2929 31.275 64.7918ZM38.9363 41.3693C39.8577 41.4263 40.3273 40.9129 40.4852 40.088C40.573 39.636 40.4062 39.1534 39.8709 39.2016C39.0021 39.2762 38.4317 39.8247 38.2079 40.6716C38.0412 41.2903 38.4931 41.3473 38.9363 41.3693ZM49.6998 59.7545C51.5602 57.2271 51.8191 54.3355 51.4944 51.321C51.2838 54.2126 50.981 57.0823 49.6998 59.7545ZM36.1851 50.2547C36.7072 50.1977 36.7599 49.8291 36.7599 49.4386C36.7599 48.9033 36.5493 48.5259 35.9481 48.5435C35.5137 48.5566 35.3865 48.8813 35.4567 49.228C35.5445 49.6624 35.5796 50.1889 36.1851 50.2547Z" fill="white"/>
<path d="M179.112 68.5259C178.586 73.8922 174.321 75.1867 170.319 76.5118C167.73 77.3675 164.97 77.5254 162.324 76.2661C161.548 75.8975 161.473 75.665 162.127 75.1647C163.54 74.0809 163.913 72.4881 164.207 70.733C160.293 78.1836 153.768 79.1577 146.326 77.8984C148.757 75.1779 152.298 73.7299 155.128 71.3736C154.777 70.9173 154.47 71.2376 154.216 71.3209C152.5 71.9001 151.824 71.6851 150.811 70.1713C150.732 70.0528 150.661 69.93 150.591 69.8115C149.139 67.3192 149.187 66.6698 151.096 64.5109C152.838 62.5364 154.611 60.5926 156.366 58.6312C156.822 58.1222 157.335 57.6439 157.585 56.7137C156.418 57.3938 155.822 58.3284 155.093 59.2542C155.014 53.2165 156.05 47.6263 159.257 42.5276C161.631 38.7496 165.01 36.2749 168.955 34.4188C169.415 34.1994 169.788 34.1862 170.266 34.4363C171.565 35.1077 172.732 34.8883 173.632 33.6904C174.439 32.6198 175.348 32.8041 176.164 33.5588C177.028 34.3574 177.739 35.3359 178.121 36.4548C179.117 39.3683 180.363 42.1152 182.487 44.4188C183.461 45.4719 183.794 46.7839 182.987 48.052C182.131 49.3903 180.955 50.4697 179.213 50.3819C177.844 50.3117 177.252 49.2104 177.094 48.0827C176.879 46.5689 175.936 46.2091 174.694 46.0511C174.088 45.9721 173.487 45.8624 172.882 45.7703C169.222 45.2174 167.866 43.5983 167.901 39.8729C167.906 39.3332 168.134 38.7804 167.871 38.1617C167.002 38.7189 166.967 39.5746 166.976 40.3951C167.006 42.5057 166.73 44.5548 166.401 46.6522C165.751 50.7944 166.958 54.6557 169.455 58.0564C170.635 59.6711 172.324 60.2591 174.268 60.224C176.168 60.1889 177.972 59.6492 179.806 59.2235C185.488 57.9159 190.407 60.654 192.324 66.1169C193.101 68.3284 192.833 70.4697 192.048 72.5934C191.526 74.0019 190.907 75.3753 190.411 76.7926C189.542 79.2718 190.398 81.6105 192.614 83.0015C194.51 84.1906 194.742 84.7216 194.238 86.819C193.549 89.7018 193.663 92.5364 194.97 95.213C195.62 96.5381 195.229 97.1832 193.952 97.4245C192.741 97.6527 192.399 98.1792 192.531 99.4605C192.754 101.65 192.539 101.742 190.28 101.575C189.626 101.527 188.963 101.558 188.309 101.501C187.774 101.453 187.024 101.826 186.765 101.299C186.532 100.829 187.116 100.285 187.388 99.8115C188.353 98.1441 189.99 96.9857 190.841 95.2174C191.065 94.7567 191.434 94.3573 191.385 93.8089C191.21 91.7466 191.004 89.6886 190.833 87.6307C190.793 87.1481 190.455 86.9067 190.161 86.6084C188.748 85.156 187.112 83.9581 185.615 82.6022C182.487 79.7676 179.999 76.5381 179.406 72.1722C179.218 70.9524 179.586 69.7325 179.112 68.5259ZM175.207 36.7137C174.562 36.6961 174.176 36.9901 174.172 37.6132C174.167 38.3284 174.72 38.5434 175.304 38.6356C176.006 38.7453 176.225 38.1968 176.291 37.6966C176.392 36.9155 175.734 36.8409 175.207 36.7137Z" fill="white"/>
<path d="M124.562 35.7044C125.514 33.2911 125.558 30.9743 123.965 28.8067C123.645 28.3723 123.044 27.951 123.386 27.3455C123.702 26.7882 124.378 26.9506 124.935 26.9155C125.65 26.876 126.576 27.3016 126.993 26.4636C127.445 25.5596 126.923 24.7084 126.304 24.0371C125.87 23.5675 125.87 23.3087 126.405 22.9576C127.893 21.9791 129.336 20.9304 130.841 19.9826C131.701 19.4429 132.355 19.7676 132.728 20.7066C133.154 21.7817 133.202 22.9137 133.206 24.0414C133.206 24.7742 133.364 25.2305 134.123 25.5377C134.76 25.7966 135.514 26.1476 135.532 27.0471C135.194 27.2797 134.931 27.0998 134.663 27.0559C132.298 26.6786 131.846 27.1042 132.092 29.5526C132.215 30.7768 132.522 31.9616 133 33.0936C133.391 34.0151 133.369 34.4363 132.118 34.5724C129.174 34.9015 127.111 38.3679 128.2 40.8383C128.81 42.2248 129.871 42.5934 131.28 42.5101C134.145 42.3345 135.343 41.242 135.295 38.482C135.255 36.1213 136.23 34.4451 138.178 33.199C140.231 31.887 142.421 30.9743 144.839 30.6452C145.168 30.6013 145.633 30.3512 145.843 30.812C145.997 31.1542 145.65 31.4263 145.457 31.6632C141.719 36.2222 140.1 41.729 138.524 47.2402C138.257 48.1704 137.809 47.8852 137.283 47.7185C133.601 46.5645 129.893 45.5114 126.124 44.7084C117.629 42.9006 109.051 42.7294 100.429 43.4491C93.4037 44.037 86.5893 45.5202 80.025 48.1309C78.3489 48.7979 78.4322 48.7189 78.0154 47.0076C76.7824 41.966 74.6236 37.3587 71.3941 33.2648C70.9246 32.668 69.8715 32.0406 70.2927 31.3517C70.7447 30.6101 71.8636 31.084 72.6446 31.2858C74.7508 31.8343 76.7429 32.6944 78.5244 33.9493C80.2752 35.1779 81.2975 36.8453 81.2624 39.0743C81.2493 40.0484 81.1747 41.0445 81.8723 41.9001C83.0878 43.392 84.9307 43.7869 86.3787 42.826C88.2962 41.5491 88.9412 39.4868 87.9057 37.7185C87.072 36.3012 85.8829 35.2393 84.3076 34.6996C83.0658 34.274 82.7411 33.6728 83.3774 32.3916C84.4963 30.1318 84.7157 28.0432 84.255 26.5294C83.6099 26.582 83.4695 27.2885 82.9737 27.5342C82.4603 27.7887 81.925 27.815 81.5082 27.4684C80.9728 27.0208 81.6573 26.7619 81.8065 26.4372C82.5174 24.8532 83.2589 23.2823 83.9829 21.7027C84.5709 20.4258 85.4529 20.2503 86.5893 20.9831C87.0632 21.2858 87.5459 21.5842 88.0242 21.8826C89.9504 23.0761 89.9417 23.0717 89.1387 25.1735C88.9237 25.7352 88.599 26.4065 89.0948 26.8979C89.617 27.4157 90.2181 26.9199 90.7885 26.7444C91.3107 26.5864 91.7714 25.8931 92.434 26.5206C93.1229 27.17 92.6051 27.7316 92.3375 28.2933C91.3019 30.4565 90.7227 32.6856 91.2756 35.4148C91.982 33.8835 92.3769 32.532 93.1843 31.3911C94.1935 29.9651 94.957 29.7676 97.1554 30.4214C98.9632 30.9611 99.8144 31.9177 99.8846 33.4184C99.9109 33.9844 99.7442 34.2213 99.1562 34.059C98.8842 33.9844 98.6034 33.9405 98.3269 33.8922C95.7644 33.4184 94.2242 34.3135 93.3379 36.7839C92.9605 37.8457 93.1536 38.7321 94.1848 39.3113C97.5766 41.2112 101.004 40.8076 104.303 39.184C105.668 38.5127 105.808 36.9945 105.637 35.5816C105.506 34.4978 105.137 33.4184 104.483 32.5759C102.671 30.2459 101.223 27.5605 98.7745 25.8229C95.1369 23.2428 96.8043 19.1314 99.1606 17.034C99.9241 16.3539 100.701 17.0208 101.377 17.3367C102.245 17.7448 102.759 17.6922 103.004 16.6698C103.342 15.2657 104.294 14.3135 105.435 13.5061C105.742 13.2911 106.001 13.0103 106.291 12.7733C106.927 12.26 107.142 11.0182 107.967 11.1235C108.608 11.2025 109.134 12.1327 109.731 12.6636C110.258 13.1331 110.78 13.6114 111.35 14.0195C112.373 14.7479 113.233 15.564 113.448 16.8892C113.562 17.6088 114.079 17.8633 114.698 17.5737C116.028 16.955 116.949 17.5912 117.822 18.46C120.13 20.7593 120.1 23.923 117.669 26.0906C116.23 27.3718 114.773 28.6312 113.513 30.1011C112.324 31.4833 111.477 33.0234 111.091 34.8181C110.503 37.5473 111.631 39.4034 114.351 40.0967C116.774 40.7154 119.139 40.1757 121.425 39.5044C123.215 38.9778 123.834 37.4947 123.149 36.1344C122.035 33.9186 120.007 32.9708 118.388 33.8571C117.936 34.1029 117.559 35.0199 116.875 34.2564C116.221 33.5237 116.449 32.747 117.037 32.0976C118.081 30.948 118.906 29.3508 120.916 29.8905C122.925 30.4346 123.869 31.9309 124.343 33.8133C124.444 34.2213 124.452 34.6513 124.501 35.0682C124.527 35.2744 124.54 35.4894 124.562 35.7044ZM105.716 28.403C105.492 27.7009 105.277 26.9989 105.049 26.2968C104.817 25.586 104.294 24.8444 104.382 24.1775C104.729 21.5403 105.506 19.0349 107.476 17.0779C107.721 16.8365 107.958 16.5469 108.27 16.9462C109.595 18.6224 111.324 20.0923 111.113 22.5539C111.087 22.8479 110.96 23.2253 111.425 23.4403C112.447 22.2468 112.351 20.926 111.723 19.6492C110.99 18.1573 109.775 17.0164 108.621 15.8449C108.213 15.4324 107.923 15.5991 107.541 15.8756C105.457 17.3938 104.049 19.3069 104.044 21.9835C104.04 23.2604 103.724 23.629 102.588 22.8128C102.359 22.6461 101.991 22.4925 101.679 22.8962C102.789 24.8751 104.141 26.6873 105.716 28.403ZM110.982 28.833C112.008 27.2885 113.053 25.7571 114.04 24.1862C114.308 23.7562 114.812 23.1419 114.088 22.7338C113.333 22.3082 112.996 23.041 112.728 23.5368C111.837 25.1735 111.223 26.9199 110.982 28.833ZM98.95 18.4469C99.8144 18.7277 100.569 19.4078 101.828 19.2235C100.846 18.4776 100.065 17.9335 98.95 18.4469Z" fill="white"/>
<path d="M90.9805 80.3248C88.1811 78.8987 83.9994 79.9518 82.3189 82.5801C80.1644 85.9413 80.2346 89.3989 82.0731 92.8829C82.5821 93.8439 83.4071 94.2256 84.4031 94.5064C85.7239 94.8794 85.8467 95.3489 84.9033 96.2791C84.425 96.7486 84.5479 97.126 84.6971 97.6525C84.9691 98.631 85.6185 100.184 84.9253 100.527C84.0214 100.97 83.1087 99.6227 82.4944 98.8241C79.2254 94.5854 77.3737 89.8245 77.9573 84.3967C78.3478 80.7943 80.3926 78.1133 83.7142 76.8145C86.8691 75.5815 89.809 76.5951 92.3145 78.8022C92.6743 79.1181 93.0165 79.3638 93.4992 79.5042C95.6624 80.1273 97.8125 80.8118 100.138 81.5314C99.2868 80.6495 99.6686 79.7456 99.8353 78.8417C100.792 73.6552 102.411 68.6354 103.6 63.506C104.131 61.2243 103.881 60.8689 101.595 60.2107C100.643 59.9386 99.6774 59.7412 98.6857 59.7017C98.4619 59.6929 98.1899 59.6534 98.1767 59.3419C98.1635 59.0567 98.3829 58.9294 98.6199 58.8899C98.9446 58.8329 99.2737 58.789 99.5984 58.7846C105.048 58.6969 110.507 58.8592 115.948 58.3414C116.013 58.3371 116.092 58.438 116.294 58.5784C115.755 59.2585 114.969 59.5876 114.271 59.9737C113.306 60.5091 112.99 61.2331 113.179 62.3037C113.618 64.7741 114.565 67.0821 115.377 69.434C116.54 72.8083 117.738 76.1738 118.822 79.5744C119.23 80.8557 119.708 81.7333 121.244 81.2857C121.371 81.2462 121.525 81.2682 121.665 81.2901C121.744 81.3033 121.81 81.3779 121.902 81.4393C121.845 81.922 121.415 82.1106 121.095 82.3388C120.463 82.7951 120.309 83.3831 120.489 84.072C121.617 88.3941 122.692 92.7381 124.864 96.6916C126.518 99.7017 128.694 100.711 131.854 100.162C132.271 100.092 132.508 100 132.705 99.6052C134.175 96.6653 135.741 93.778 136.852 90.667C138.142 87.0426 137.189 82.8478 134.574 80.8952C133.166 79.8421 131.634 79.4428 129.927 79.8904C128.611 80.237 127.303 80.6319 125.992 81.0093C125.421 81.1716 124.794 81.2418 124.465 80.6802C124.149 80.1449 124.754 79.7982 125.066 79.5525C127.299 77.7842 129.405 75.7219 132.648 76.1826C136.084 76.6697 138.984 79.2453 139.612 82.8522C140.542 88.1922 139.392 93.1286 136.132 97.5165C135.597 98.2405 134.93 98.8504 134.153 99.3024C133.438 99.7192 132.85 100.167 132.723 101.075C132.63 101.724 132.051 101.966 131.49 102.084C129.954 102.405 128.901 103.366 127.76 104.406C124.728 107.17 121.064 108.89 117.159 110.083C112.455 111.518 107.633 112.054 102.797 111.158C97.7204 110.224 92.9156 108.477 89.085 104.774C88.4751 104.186 87.7467 103.932 86.97 103.73C86.5619 103.624 86.1407 103.545 85.7634 103.374C85.3772 103.199 84.9604 102.905 84.9779 102.453C84.9999 101.843 85.6142 101.953 85.9696 101.939C91.257 101.72 93.7756 98.4204 95.1095 93.7868C95.8248 91.3033 96.3952 88.7671 97.7467 86.5249C98.0933 85.95 97.7993 85.6385 97.4264 85.3401C95.7239 83.9667 93.7844 83.0058 91.7133 82.3607C90.6164 82.0185 88.6725 83.2603 88.2688 84.3397C88.0363 84.9672 88.4268 85.3138 88.791 85.6736C89.5676 86.4371 90.2829 87.2313 90.6032 88.3151C90.7568 88.8241 90.691 89.0698 90.1249 89.2015C89.0981 89.434 88.067 89.5437 87.0534 89.2717C84.3197 88.5345 83.7142 86.6521 85.4079 84.4187C86.5181 82.9575 87.852 81.843 89.5808 81.1848C90.0766 80.9742 90.669 80.8689 90.9805 80.3248ZM127.26 102.567C126.553 102.391 125.741 102.163 124.916 101.992C121.604 101.308 118.282 101.496 114.952 101.869C114.443 101.926 113.688 102.238 113.464 101.536C113.253 100.882 114.026 100.79 114.438 100.54C116.075 99.5349 116.83 98.3414 116.43 96.8627C115.706 94.1905 114.833 91.5578 114.035 88.9075C113.912 88.4994 113.771 88.2405 113.258 88.3678C109.528 89.3112 105.82 89.219 102.152 88.0299C101.652 87.8675 101.354 88.0562 101.178 88.5389C99.9538 91.8737 99.0981 95.2787 99.278 98.8636C99.3482 100.224 100.059 101.141 101.415 101.496C101.915 101.628 102.582 101.764 102.486 102.387C102.393 102.988 101.691 102.747 101.288 102.721C98.7515 102.563 96.2153 102.536 93.6835 102.738C92.2179 102.852 90.7831 103.137 89.5413 103.769C102.367 111.036 115.031 111.751 127.26 102.567ZM107.198 66.5073C105.864 71.9263 104.544 77.3498 103.188 82.7644C103.034 83.3831 103.403 83.506 103.789 83.6683C105.425 84.3748 107.088 84.954 108.883 85.2041C110.445 85.4191 112.196 85.2129 113.53 86.6389C111.139 79.9869 109.217 73.2427 107.198 66.5073Z" fill="white"/>
<path d="M205.321 107.473C206.005 106.402 206.988 106.047 207.901 105.581C209.866 104.585 211.591 103.322 212.473 101.194C213.214 99.4077 212.811 97.7754 211.332 96.4941C209.665 95.0461 207.15 94.5239 205.72 95.3357C204.834 95.8359 204.329 97.3278 204.654 98.4599C205.04 99.8113 206.15 100.018 207.308 100.114C207.672 100.145 208.173 99.6446 208.335 100.347C208.454 100.851 208.002 101.018 207.655 101.286C203.263 104.686 198.076 106.266 192.819 107.499C187.133 108.828 181.314 109.566 175.492 108.377C172.885 107.846 170.213 107.209 167.927 105.788C166.167 104.691 164.662 104.805 162.956 105.726C159.511 107.587 155.952 109.127 152.056 109.833C148.221 110.531 144.588 110.066 141.06 108.447C138.212 107.139 137.396 104.752 137.365 101.733C137.361 101.373 137.475 100.965 137.659 100.658C141.139 94.8311 147.866 91.4568 154.605 94.9188C157.765 96.5424 158.897 99.9913 157.558 103.936C159.976 103.287 162.038 101.948 164.289 101.066C166.308 100.276 168.313 99.4252 170.56 100.013C170.92 100.11 171.284 100.228 171.608 100.404C172.271 100.75 172.218 101.145 171.635 101.553C171.029 101.979 170.187 101.988 169.704 102.65C170.49 103.638 171.679 103.677 172.723 103.975C182.389 106.718 191.701 105.375 200.775 101.461C201.723 101.053 202.666 100.627 203.605 100.197C204.289 99.8859 204.368 99.434 203.868 98.8767C203.71 98.7012 203.557 98.5213 203.403 98.3458C201.837 96.5819 201.955 95.6867 203.947 94.2914C208.12 91.3647 214.522 93.8965 215.549 98.8943C215.803 100.123 215.676 101.312 215.057 102.448C213.386 105.516 209.059 107.81 205.321 107.473ZM147.392 106.911C149.072 107.104 150.59 106.547 152.096 106.051C155.189 105.029 156.233 101.316 154.43 98.5784C152.069 94.9978 146.764 95.577 143.912 97.4243C141.753 98.8241 141.165 101.049 141.446 103.33C141.661 105.103 143.412 105.796 144.97 106.415C145.764 106.731 146.576 106.911 147.392 106.911Z" fill="white"/>
<path d="M215.097 71.2374C217.598 72.6854 218.177 76.4809 216.33 78.8416C214.021 81.7859 211.275 83.8613 207.137 82.8916C203.289 81.9921 201.218 79.4866 200.296 75.8359C200.024 74.7521 199.875 73.642 199.656 72.466C199.063 76.5336 201.139 80.6538 204.688 82.5625C204.934 82.6942 205.167 82.8609 205.426 82.975C206.198 83.3128 205.864 83.7034 205.377 84.1246C208.001 84.7696 210.441 85.1338 212.666 83.2207C213.319 82.6591 214.219 82.3914 214.965 82.014C215.259 82.2334 215.184 82.4221 215.07 82.5625C212.464 85.6955 209.208 87.8938 204.807 86.9636C197.663 85.4542 193.986 79.5875 195.794 72.3782C196.093 71.1935 196.47 70.0351 196.553 68.7977C196.79 65.283 193.64 61.1321 190.169 60.4169C189.822 60.3467 189.353 60.4958 189.221 60.0088C189.098 59.5656 189.476 59.3374 189.761 59.1049C191.902 57.3366 194.337 56.1825 197.075 55.6911C202.508 54.717 206.79 58.5959 206.891 64.5415C206.926 66.6652 206.193 68.6047 205.57 70.5704C204.956 72.5099 205.14 74.2211 206.584 75.792C208.515 77.8938 210.695 78.0474 212.832 76.0904C212.964 75.9675 213.109 75.8578 213.324 75.6779C212.709 78.1352 211.064 79.2541 208.795 78.8504C205.053 78.1834 202.964 75.9588 202.394 72.0184C202.341 71.663 202.328 71.3032 202.231 70.961C202.051 74.0851 202.416 77.0864 205.465 78.7889C208.396 80.4256 211.191 79.9386 213.828 77.8148C216.057 76.0202 216.027 73.8701 215.097 71.2374ZM197.975 72.6327C197.852 72.7644 197.65 72.8785 197.624 73.0276C197.137 75.5946 197.277 78.0781 198.712 80.351C199.493 81.584 200.498 82.5713 202.06 82.8916C198.664 80.2413 197.378 76.8012 197.971 72.6064C198.072 72.0535 198.12 71.4875 198.278 70.9478C198.787 69.2058 199.028 67.455 198.585 65.6648C198.177 64.0193 197.304 62.7381 195.733 61.9263C195.671 62.1018 195.632 62.1632 195.645 62.1808C195.803 62.4046 195.943 62.6503 196.136 62.839C197.9 64.5853 198.493 66.6959 198.287 69.14C198.19 70.3071 197.738 71.4436 197.975 72.6327ZM193.17 59.3638C197.093 59.355 199.432 61.6191 201.077 64.9057C200.353 61.0092 196.856 58.5476 193.17 59.3638Z" fill="white"/>
<path d="M1.81937 85.0506C0.660971 83.4841 0.0422791 81.7422 0.222183 79.7808C0.318716 78.6926 0.617093 77.6658 1.90713 77.034C1.14803 80.6759 2.969 82.8435 5.83429 84.2257C8.74346 85.6298 11.5166 84.7917 13.8422 82.8479C15.9264 81.1015 16.4969 78.6531 16.0537 75.9896C16.0317 77.6921 15.4569 79.2323 14.6013 80.6803C13.7193 82.1766 12.4205 83.0936 10.7224 83.4929C8.28712 84.0677 6.6636 83.6948 5.65878 82.1809C6.25992 82.2424 6.79524 82.317 7.33495 82.3521C11.4288 82.6241 13.2454 80.2942 11.9335 76.4548C11.464 75.077 10.8672 73.7343 10.4767 72.3345C9.12082 67.4991 11.3323 62.453 15.5008 60.7198C18.5241 59.4649 24.1888 60.6364 26.4618 62.9883C26.6855 63.2165 27.0234 63.4096 26.8303 63.8045C26.6417 64.1818 26.2819 64.3179 25.8869 64.3091C24.9787 64.2871 24.1186 64.0107 23.3069 63.6553C21.5912 62.9006 20.0379 63.2384 18.467 64.0985C16.3872 65.2393 14.4609 69.3595 15.2639 73.177C15.4613 71.8431 15.5886 70.7505 15.786 69.6711C16.0493 68.2143 16.5188 66.8189 17.6465 65.7966C20.288 63.4052 21.3981 62.9708 24.6978 64.8137C24.123 65.5465 23.1533 65.6562 22.539 66.3143C20.4284 68.5917 20.1827 71.2376 20.854 74.0853C21.148 75.3183 21.4991 76.5381 21.8545 77.758C24.0221 85.1823 19.7571 90.0221 13.2103 91.5315C8.13793 92.7075 3.86413 90.2415 1.81937 85.0506C3.64035 87.6044 5.99226 89.1796 9.25685 89.1094C11.6088 89.0568 13.772 88.3986 15.8124 87.2314C18.6557 85.5991 19.9984 83.2779 19.7307 79.9168C19.5508 77.6527 19.0462 75.4719 18.6908 73.2516C18.2827 70.7022 19.0901 68.4425 20.7399 66.4723C21.4025 65.6825 22.4425 65.5026 23.2103 64.8795C21.3235 65.0462 19.8317 65.8185 18.9716 67.5956C18.0677 69.4648 17.6948 71.4131 18.0546 73.4798C18.4363 75.6518 18.9234 77.8018 18.7742 80.0397C18.6294 82.159 17.8439 83.9142 16.2248 85.3358C12.4688 88.6355 7.44904 88.8374 3.27177 85.7878C2.8242 85.4587 2.43368 85.0375 1.81937 85.0506Z" fill="white"/>
<path d="M137.581 50.8646C136.9 52.0537 136.782 53.6026 136.514 55.1296C136.339 56.1344 135.641 55.5201 135.202 55.3446C130.586 53.5368 125.834 52.2248 120.898 51.7158C107.945 50.3775 95.1892 51.1235 82.7934 55.4894C82.6179 55.5509 82.438 55.6123 82.2581 55.6649C80.4239 56.2178 80.4152 56.2178 80.1607 54.3617C80.0466 53.5149 79.9895 52.5759 79.4674 51.9484C78.5766 50.8777 79.3182 50.8558 80.0729 50.553C84.667 48.7189 89.3621 47.2007 94.2458 46.3889C106.979 44.2696 119.612 44.5416 132.069 48.2319C133.732 48.7233 135.365 49.3376 137.006 49.9036C137.357 50.0265 137.791 50.0967 137.581 50.8646ZM107.664 46.9067C106.909 46.9681 106.681 47.4947 106.699 48.0827C106.716 48.7496 106.9 49.4648 107.747 49.5043C108.612 49.5438 108.818 48.8549 108.871 48.1704C108.928 47.328 108.327 47.0647 107.664 46.9067ZM96.9794 48.0607C96.3564 48.2231 95.6192 48.3328 95.5358 49.1226C95.4832 49.6096 95.7508 50.2327 96.4046 50.1318C97.1681 50.0133 97.8614 49.5131 98.0238 48.7672C98.1466 48.1924 97.4094 48.2275 96.9794 48.0607ZM84.2458 52.2819C84.1405 51.7422 83.9035 51.3692 83.4033 51.4175C82.4731 51.5052 82.0738 52.2073 81.8237 52.9971C81.7271 53.2955 81.793 53.6158 82.2054 53.5061C83.0128 53.2911 83.8245 53.0498 84.2458 52.2819ZM132.407 51.1366C132.482 50.632 132.122 50.4741 131.762 50.3775C131.38 50.2722 130.841 50.0309 130.678 50.5662C130.525 51.0796 131.157 51.0006 131.442 51.163C131.745 51.3385 132.1 51.5886 132.407 51.1366ZM89.147 50.5925C88.2651 50.4741 87.6903 50.2942 87.1637 50.711C87.0365 50.8119 87.0058 51.1103 87.212 51.1805C87.8439 51.4087 88.423 51.3122 89.147 50.5925Z" fill="white"/>
<path d="M72.8761 56.9065C72.5953 58.4247 71.823 59.5041 70.7743 60.4124C68.4663 62.4133 68.4663 62.4089 67.7642 65.2786C65.6493 63.2295 63.4729 61.3866 61.6826 59.1531C61.4281 58.8328 61.2746 58.4511 61.4194 57.9728C62.8147 53.2514 61.7704 48.8986 59.3746 44.7565C56.676 40.1053 52.8059 36.8583 47.7555 35.0022C46.8296 34.6599 45.8906 34.3177 45.0394 33.835C44.1969 33.3567 43.3807 32.4221 43.7405 31.5752C44.1047 30.7196 45.307 30.9346 46.2548 30.9522C47.6589 30.9829 48.3698 31.9219 49.1728 32.7995C49.3395 32.9838 49.4536 33.3172 49.8748 33.1856C49.752 32.4484 49.0016 31.9745 48.9972 31.1979C50.748 30.7898 52.5251 31.6937 54.3505 33.993C54.7278 32.9881 55.3904 33.0145 56.1539 33.4664C57.6721 34.3659 59.3395 35.0417 60.3707 36.6213C60.7348 37.183 61.4808 37.2839 62.06 37.5823C63.7405 38.4379 64.153 39.491 63.3544 41.1979C63.0648 41.821 63.4115 42.093 63.7713 42.3651C68.01 45.6077 69.5589 50.0614 69.5896 55.2084C69.5896 55.3488 69.594 55.4892 69.6071 55.6296C69.6993 56.5028 69.5194 57.6042 70.4057 58.0474C71.4325 58.5651 72.0863 57.5779 72.8761 56.9065ZM62.6524 48.8021C63.214 51.6981 63.214 54.6116 63.3456 57.5164C63.6835 54.5634 63.8195 51.6279 62.6524 48.8021ZM66.3206 55.5243C66.676 53.1549 66.6848 50.8161 65.4211 48.6485C66.0661 50.8907 66.2329 53.1944 66.3206 55.5243Z" fill="white"/>
<path d="M131.486 68.1615C132.666 70.0834 132.438 70.8118 130.064 73.3787C131.701 73.2208 133.491 71.6104 133.838 69.9781C134.211 68.2361 133.553 66.3011 131.828 65.7701C129.542 65.0637 127.976 63.3744 125.992 62.3213C124.663 61.6192 124.215 60.6714 124.044 59.4077C123.816 57.714 122.82 56.7706 121.271 56.2221C116.822 54.6425 112.206 54.2344 107.546 54.3265C103.5 54.4055 99.5071 54.8926 95.7555 56.6258C94.0969 57.3937 92.8288 58.4643 92.2452 60.2502C91.9907 61.0312 91.6616 61.7684 90.6041 61.6675C90.4374 61.6499 90.1785 61.7377 90.0995 61.8649C88.9367 63.7429 86.8876 64.5328 85.2597 65.8316C83.114 67.5472 82.8814 70.0966 84.6936 72.2203C85.2289 72.8478 85.8213 73.1418 86.6726 72.9487C87.5414 72.7557 88.4321 72.6547 89.3185 72.545C89.7134 72.4968 90.4067 72.0711 90.3365 72.9136C90.2794 73.585 90.8806 74.6951 89.6607 74.8618C88.2259 75.0593 86.7559 75.0681 85.3035 75.0812C84.2066 75.09 83.329 74.581 82.6576 73.6947C81.9687 72.7864 81.4159 71.8123 81.0078 70.7548C79.6432 67.1962 82.0697 63.3524 85.8827 63.1242C87.0499 63.054 87.7959 63.1067 86.9797 61.5622C86.2162 60.1229 86.9227 58.4468 88.3838 57.7359C91.2974 56.3274 94.2548 55.0461 97.4317 54.2826C100.297 53.5937 103.219 53.6903 106.111 53.3744C112.21 52.7118 118.208 53.1944 124.15 54.6776C125.413 54.9935 126.76 54.9672 128.068 55.1076C130.477 55.3665 132.78 55.9764 134.926 57.126C135.356 57.3586 135.913 57.4595 136.128 58.2054C132.732 57.9509 129.841 56.0422 126.436 55.6166C126.629 56.5117 127.265 56.7662 127.796 57.0997C129.441 58.1264 130.003 59.1313 129.525 60.9742C129.2 62.2291 129.687 62.5889 130.74 62.7644C132.184 63.0014 133.588 63.3305 134.737 64.3616C136.716 66.1387 137.296 69.0391 135.856 71.2638C134.694 73.0584 133.153 74.5108 130.955 75.0549C129.999 75.2919 129.064 75.6341 128.103 75.8403C127.546 75.9588 126.673 76.5819 126.479 75.5727C126.304 74.6644 126.273 73.2032 127.414 73.0935C130.437 72.8083 130.968 70.667 131.486 68.1615Z" fill="white"/>
<path d="M45.6934 104.721C47.3915 102.225 49.6732 102.111 52.1216 102.826C54.2366 103.444 56.3164 104.19 58.4182 104.862C58.9448 105.029 59.4845 105.143 60.2743 105.349C59.0896 103.444 59.2563 101.654 60.011 99.9474C60.9983 97.7139 62.9904 96.4721 65.0791 95.4717C68.7517 93.7165 74.7105 94.638 77.646 97.4506C79.6776 99.3945 80.8711 101.935 81.9198 104.498C82.3761 105.612 81.6477 106.599 80.9149 107.411C79.6644 108.798 78.0848 109.724 76.3779 110.43C71.0729 112.624 65.7636 112.699 60.5332 110.25C57.2642 108.719 53.8197 107.604 50.6297 105.889C49.1203 105.086 47.4397 104.827 45.6934 104.721ZM75.7943 105.287C76.0444 104.103 76.2726 103.111 76.4656 102.111C76.6455 101.167 76.3998 100.316 75.6846 99.6753C73.5565 97.7666 68.1901 95.9588 64.9211 98.7495C63.4511 100.004 62.1567 101.255 62.4683 103.322C62.7754 105.358 63.9514 106.775 65.8996 107.604C69.2388 109.026 72.5209 108.653 75.7636 107.407C77.058 106.911 77.9707 105.915 78.0365 104.34C77.2028 104.383 76.6806 104.919 75.7943 105.287Z" fill="white"/>
<path d="M149.103 65.5903C148.678 64.0809 148.946 63.0058 149.02 61.944C149.068 61.2419 148.893 60.8777 148.173 60.5881C146.19 59.7851 145.032 58.2099 144.246 55.8097C145.124 56.4196 145.646 56.8496 146.221 57.1699C147.427 57.8369 147.835 57.6 147.849 56.2353C147.862 55.0594 147.748 53.8878 147.761 52.7119C147.827 47.6658 149.972 43.6684 153.93 40.5969C154.444 40.1976 154.966 39.8027 155.514 39.3815C155.369 39.3112 155.29 39.2367 155.229 39.2454C154.659 39.3639 153.956 39.9036 153.553 39.2586C153.118 38.5653 153.254 37.7009 153.812 37.0208C154.602 36.0554 155.659 35.8009 156.853 35.9764C157.686 36.0993 158.222 36.0028 158.007 34.9058C157.827 33.9668 158.292 33.2428 159.187 32.8962C160.262 32.4793 161.262 31.7553 162.557 32.1941C162.943 32.3257 163.254 31.786 163.548 31.5052C164.773 30.3424 166.124 29.456 167.875 29.3858C168.147 29.3771 168.48 29.2586 168.643 29.5482C168.823 29.8641 168.498 30.044 168.318 30.2415C167.791 30.8207 167.283 31.4087 166.918 32.4661C167.971 31.8343 168.432 31.0839 168.937 30.3907C169.266 29.9431 169.582 29.614 170.196 29.6842C170.828 29.7544 171.214 29.8685 170.784 30.6276C170.007 31.9835 169.279 33.1199 167.577 33.7781C161.982 35.9413 158.594 40.2897 155.927 45.5947C153.807 49.8202 154.404 54.0721 154.351 58.3854C154.347 58.7057 154.536 59.0392 154.264 59.3156C152.451 61.1893 150.534 62.9707 149.103 65.5903ZM153.57 58.9119C149.555 54.7391 150.301 50.1888 152.386 45.5245C149.024 50.7856 149.086 55.7 153.57 58.9119Z" fill="white"/>
<path d="M52.1795 107.512C51.4906 108.491 50.67 109.175 49.753 109.746C44.9044 112.743 39.6521 114.261 33.9346 113.976C26.5323 113.607 19.4765 111.769 12.6753 108.877C12.2409 108.693 11.7583 108.526 11.5827 108.052C11.3677 107.477 11.201 107.109 12.1927 106.81C15.1764 105.906 17.6995 107.57 20.4243 108.008C24.4568 108.653 28.4542 109.54 32.4822 110.22C37.1071 111.001 41.3853 109.276 45.7468 108.215C46.9316 107.925 48.1031 107.561 49.2879 107.271C50.2444 107.039 51.2054 106.99 52.1795 107.512Z" fill="white"/>
<path d="M0.0159471 125.494C0.125644 119.144 5.44815 116.336 10.0862 116.156C10.2222 116.152 10.367 116.187 10.503 116.222C11.1612 116.402 12.1485 116.433 12.087 117.271C12.0388 117.938 11.0822 117.727 10.5249 117.784C7.04973 118.161 4.0923 119.372 3.30686 123.15C2.39857 127.525 3.66228 131.996 7.68598 133.892C9.81849 134.897 11.7448 134.256 13.4999 133.006C15.0532 131.895 15.3428 130.263 15.0094 128.469C14.8514 127.622 14.3819 126.99 13.6447 126.604C12.8944 126.213 12.1748 126.218 11.7711 127.13C11.3499 128.074 10.6829 128.784 9.74828 129.188C9.34021 129.364 8.91458 129.991 8.40559 129.429C7.97119 128.947 7.5324 128.526 7.75179 127.648C8.63376 124.111 11.3894 123.12 14.4872 125.107C19.0418 128.025 17.3262 133.774 14.066 135.476C11.4069 136.863 8.81805 137.113 6.14144 135.665C2.01682 133.436 -0.212223 130.079 0.0159471 125.494Z" fill="white"/>
<path d="M45.3034 101.47C43.5175 101.47 43.2192 100.943 44.1582 99.3243C44.5048 98.732 44.79 98.3459 43.8554 98.0168C43.4166 97.8632 43.0568 97.3673 42.7497 96.9549C40.9989 94.6118 39.0551 92.4661 36.6198 90.7987C35.7773 90.2239 35.7115 89.4911 36.2073 88.596C36.8611 87.42 37.3877 86.2265 36.2819 84.9584C35.8914 84.5108 36.2468 83.9492 36.5276 83.5236C37.8133 81.5929 38.8708 79.5613 39.3227 77.262C39.4236 76.753 39.6387 76.6565 40.095 76.9154C41.1569 77.5209 42.2275 78.1089 43.3113 78.6662C43.772 78.9031 43.8379 79.1927 43.7852 79.6842C43.5044 82.3081 43.1709 84.875 41.7536 87.2269C40.6435 89.0698 40.898 90.0352 42.3328 91.6719C43.9432 93.506 45.5096 95.3752 47.4842 96.8584C48.5899 97.6877 49.8668 98.8329 49.4017 100.184C49.0287 101.259 47.3218 101.163 46.1459 101.409C45.8738 101.479 45.5886 101.457 45.3034 101.47Z" fill="white"/>
<path d="M172.135 97.9948C171.903 97.986 171.666 97.986 171.433 97.9729C169.323 97.8281 169.156 97.5121 170.411 95.7219C170.999 94.8794 171.631 93.9974 172.438 93.4007C174.531 91.8517 175.979 89.7938 177.357 87.6569C178.577 85.7614 178.682 85.4147 177.146 83.7166C175.422 81.8122 174.667 79.57 174.123 77.1611C173.965 76.4678 174.053 76.1431 174.72 75.8798C175.549 75.5551 176.348 75.147 177.133 74.7214C178.563 73.9535 178.568 73.9316 179.09 75.5551C179.349 76.3669 179.678 77.1348 180.147 77.85C181.065 79.2541 182.122 80.5617 181.846 82.4661C181.749 83.1198 182.179 83.9448 182.574 84.5591C183.171 85.4937 182.903 86.1607 182.175 86.753C179.612 88.8329 177.945 91.606 176.097 94.2695C175.479 95.1602 175.079 95.8667 175.11 96.911C175.132 97.7183 174.614 98.0825 173.833 98.0782C173.272 98.0738 172.706 98.0431 172.144 98.0255C172.135 98.0167 172.135 98.0079 172.135 97.9948Z" fill="white"/>
<path d="M67.2561 73.0935C69.9283 71.8825 72.5786 71.6674 75.2333 71.9395C76.5189 72.0711 77.1288 73.2032 77.2297 74.5064C77.3263 75.7306 76.848 76.8101 76.3346 77.8675C75.1894 80.2326 73.8862 82.5143 72.6576 84.8311C71.6132 86.7969 69.8361 88.2888 68.5593 90.1449C67.8002 91.2506 66.3697 91.3647 65.0797 90.8381C64.009 90.3993 63.6799 89.4252 63.8335 88.3941C64.0178 87.1523 64.5093 86.1211 66.0275 85.8842C68.1951 85.5463 69.6519 84.309 70.4066 82.1764C70.9375 80.6802 71.6878 79.2585 72.5435 77.9026C72.9033 77.3322 72.9559 76.7969 72.0827 76.7047C69.8142 76.459 68.7743 74.638 67.2561 73.0935Z" fill="white"/>
<path d="M146.528 71.593C147.905 71.7378 149.353 71.4087 150.621 72.295C151.245 72.7294 151.35 73.0147 150.727 73.5544C149.318 74.7698 147.905 75.9019 145.869 75.7308C144.601 75.6211 144.592 76.5908 145.066 77.1788C147.344 80.0221 148.059 84.0941 151.789 85.801C151.947 85.8755 151.969 86.345 152.258 86.0335C152.956 85.2788 153.667 85.2612 154.281 86.0467C154.965 86.9155 155.189 87.973 154.601 88.9427C154.022 89.8949 153.105 90.5223 151.898 90.4258C150.731 90.3336 149.836 89.8334 149.494 88.6092C149.292 87.8808 148.884 87.4025 148.081 87.2182C147.186 87.0076 146.764 86.2354 146.326 85.4938C144.803 82.905 143.254 80.3336 141.714 77.7536C141.569 77.5122 141.403 77.2797 141.288 77.0252C140.025 74.1862 139.845 71.4745 144.553 71.5359C145.211 71.5403 145.869 71.571 146.528 71.593Z" fill="white"/>
<path d="M211.455 110.07C214.737 110.11 217.401 111.869 218.932 115.301C220.498 118.82 220.459 122.216 218.024 125.393C216.058 127.955 213.588 129.535 210.244 129.491C207.181 129.452 203.588 126.45 203.122 123.493C202.846 121.755 203.623 120.399 204.785 119.215C204.992 119.004 205.286 118.671 205.628 118.969C205.887 119.197 205.676 119.517 205.558 119.75C204.606 121.632 205.22 123.361 206.207 124.941C207.708 127.345 210.433 127.999 212.991 126.735C216.054 125.222 218.002 121.321 217.291 118.135C216.457 114.41 213.592 112.076 209.717 112.054C208.594 112.049 207.475 112.238 206.352 112.326C206.045 112.352 205.65 112.536 205.488 112.119C205.347 111.755 205.667 111.514 205.896 111.29C206.409 110.781 207.076 110.535 207.756 110.342C208.8 110.031 209.884 110.013 211.455 110.07Z" fill="white"/>
<path d="M14.8647 105.406C14.7945 105.147 14.733 105.02 14.733 104.897C14.7287 102.624 14.2328 101.676 12.8287 101.255C11.2315 100.777 8.64265 101.619 7.74313 102.913C5.88267 105.594 6.73392 109.337 9.62554 110.943C10.8541 111.628 12.1573 112.172 13.4211 112.795C13.715 112.94 14.0529 113.115 13.9695 113.515C13.8906 113.918 13.5176 113.936 13.1841 113.949C6.00553 114.265 2.87697 109.035 4.46977 103.778C5.78175 99.4514 11.2096 97.4111 14.755 99.8288C17.4886 101.698 17.5588 103.243 14.8647 105.406Z" fill="white"/>
<path d="M107.923 0C108.555 2.40456 109.994 4.10268 111.56 5.73936C112.372 6.58622 112.311 7.65248 111.718 8.61781C111.148 9.54804 110.38 10.1667 109.16 9.97806C108.098 9.81571 107.032 9.68846 105.935 9.82887C104.886 9.96051 104.333 9.2014 103.943 8.35893C103.451 7.30145 103.443 6.25274 104.246 5.3269C104.518 5.01097 104.856 4.72137 105.224 4.5283C106.378 3.93594 106.918 2.97938 107.093 1.72883C107.168 1.18912 107.177 0.583589 107.923 0Z" fill="white"/>
<path d="M66.7644 31.2507C64.6758 31.1629 63.3199 29.829 63.3726 27.9115C63.4428 25.4762 65.4349 23.3525 67.5455 23.4666C69.6692 23.585 71.183 25.2085 71.0602 27.2401C70.9154 29.7632 69.2085 31.356 66.7644 31.2507Z" fill="white"/>
<path d="M152.28 26.2749C152.188 28.7277 150.564 30.4741 148.414 30.439C146.642 30.4083 144.97 28.1836 145.027 25.9326C145.079 23.9581 146.949 22.1941 148.906 22.2775C151.06 22.3696 152.368 23.923 152.28 26.2749Z" fill="white"/>
<path d="M209.551 117.798C211.605 117.912 212.535 118.561 213.005 120.013C213.43 121.33 212.983 122.273 211.868 123.01C210.762 123.739 209.775 123.655 208.871 122.686C208.52 122.308 208.147 121.944 207.84 121.536C207.217 120.702 206.493 119.781 207.125 118.737C207.691 117.811 208.823 117.894 209.551 117.798Z" fill="white"/>
<path d="M40.8982 35.5024C39.6081 35.3883 38.2172 35.599 37.2299 34.4581C36.9271 34.1071 36.6156 33.7253 36.4488 33.3041C36.1812 32.6284 35.7336 31.7157 36.4752 31.2681C37.0851 30.9039 37.3264 31.9263 37.7784 32.2773C37.853 32.3344 37.9012 32.4177 37.967 32.4879C38.4365 33.0013 38.9324 33.7911 39.6169 33.563C40.1522 33.3875 39.8363 32.4792 39.9372 31.9C40.0688 31.1409 39.6037 29.9122 40.376 29.7192C41.2843 29.491 41.4554 30.7898 41.8679 31.4612C42.4076 32.3344 42.8332 33.2821 43.2193 34.2387C43.7196 35.4761 43.4958 35.7438 42.1575 35.6472C41.7362 35.6077 41.315 35.5507 40.8982 35.5024Z" fill="white"/>
<path d="M174.022 31.3254C175.286 30.439 176.51 29.8993 177.028 28.5654C177.138 28.2845 177.427 28.1529 177.73 28.2495C177.98 28.3284 178.046 28.5742 178.072 28.8111C178.239 30.2459 177.682 31.3956 176.585 32.2644C175.751 32.9269 174.834 32.9884 173.926 32.3126C173.702 32.1459 173.662 32.1766 173.408 32.532C173.162 32.8743 172.974 33.2604 172.697 33.5763C172.359 33.9669 171.912 34.0459 171.42 33.8396C170.898 33.6202 170.753 33.2209 170.854 32.6988C171.236 30.7286 172.544 29.2718 173.671 27.7361C174.027 27.249 174.303 27.815 174.365 28.1705C174.54 29.1534 174.277 30.1143 174.022 31.3254Z" fill="white"/>
<path d="M133.096 85.2873C132.986 86.4764 132.122 87.1785 130.871 87.4418C129.647 87.7007 128.66 87.297 128.006 86.1868C127.677 85.6252 127.852 85.1118 128.146 84.5984C128.633 83.7428 129.607 83.3216 130.055 82.4089C130.252 82.0052 130.731 82.2334 131.077 82.3431C132.245 82.7248 133.144 83.9578 133.096 85.2873Z" fill="white"/>
<path d="M93.2934 65.8009C93.1047 66.5469 92.9555 67.385 92.0867 67.5298C91.3451 67.657 90.959 67.0076 90.6387 66.4196C90.529 66.2134 90.4237 65.9984 90.3666 65.7746C90.1867 65.0769 89.5812 64.274 90.1867 63.6816C90.7177 63.1594 91.525 63.5982 92.1613 63.8659C92.995 64.2213 93.2232 64.976 93.2934 65.8009Z" fill="white"/>
<path d="M126.426 64.9716C126.299 64.6776 126.167 64.3837 126.04 64.0897C125.768 64.9234 126.163 65.4675 126.426 66.0423C126.654 66.5469 126.553 66.9901 126.189 67.3279C125.821 67.6702 125.382 67.4771 125.009 67.2621C124.061 66.7224 123.526 65.9765 123.877 64.8224C124.136 63.9624 124.592 63.1419 125.522 63.1068C126.492 63.0717 126.352 64.1643 126.839 64.6601C126.698 64.761 126.562 64.8663 126.426 64.9716Z" fill="white"/>
<path d="M88.042 69.7764C87.2083 69.6272 86.4097 69.1621 86.4668 68.109C86.5194 67.091 87.4233 66.6478 88.2789 66.3846C88.7441 66.2398 89.705 67.8633 89.6655 68.618C89.6216 69.3157 88.9986 69.8027 88.042 69.7764Z" fill="white"/>
<path d="M127.177 68.271C127.348 67.6479 127.374 66.7922 128.274 66.5992C128.998 66.4456 130.13 67.7137 130.09 68.6088C130.055 69.4557 129.621 70.0393 128.717 70.0744C127.967 70.1051 127.181 69.1968 127.177 68.271Z" fill="white"/>
<path d="M133.609 82.8652C134.992 84.2913 135.878 85.928 135.509 88.0078C135.413 88.5476 135.224 89.0917 134.54 88.9425C133.794 88.7801 134.162 88.2272 134.281 87.8104C134.777 86.0728 134.307 84.48 133.609 82.8652Z" fill="white"/>
<path d="M210.095 74.2475C209.599 74.2168 208.919 74.1554 208.945 73.5279C208.98 72.76 209.656 72.5757 210.389 72.5187C211.1 72.4616 211.38 72.7688 211.35 73.3831C211.319 74.129 210.727 74.2212 210.095 74.2475Z" fill="white"/>
<path d="M117.559 38.0697C117.436 39.0438 116.55 39.1008 115.9 39.3685C115.497 39.5308 115.347 39.0789 115.369 38.7498C115.453 37.6265 116.51 37.8152 117.177 37.5212C117.537 37.3544 117.559 37.7844 117.559 38.0697Z" fill="white"/>
<path d="M87.0362 56.876C85.3995 57.815 84.2499 58.9383 82.2402 58.4644C83.776 57.6044 85.1582 57.1392 87.0362 56.876Z" fill="white"/>
<path d="M7.94057 77.9685C7.85281 78.8329 7.35259 79.0523 6.68125 78.9996C6.1898 78.9602 5.73346 78.8505 5.91775 78.0212C6.6242 78.653 7.26922 78.381 7.94057 77.9685Z" fill="white"/>
<path d="M147.102 98.2141C147.576 98.2141 147.888 98.3633 147.988 98.7099C148.173 99.3418 148.506 99.8991 148.787 100.487C148.993 100.917 148.932 101.461 148.436 101.72C147.931 101.979 147.83 101.448 147.629 101.167C147.216 100.601 146.751 100.057 146.44 99.4383C146.075 98.7143 146.413 98.2799 147.102 98.2141Z" fill="white"/>
<path d="M69.7923 101.856C69.8055 100.702 70.6918 100.369 71.5343 100.189C72.0389 100.083 72.6488 100.592 72.3987 101.141C72.0126 101.992 71.6923 103.164 70.7752 103.401C70.1653 103.563 69.7792 102.606 69.7923 101.856Z" fill="white"/>
<path d="M49.1109 134.543V134.914C49.0849 136.008 48.9677 137.141 48.7594 138.312C48.5641 139.484 48.2841 140.656 47.9195 141.828C47.5549 143 47.1188 144.159 46.6109 145.305C46.1031 146.451 45.5302 147.544 44.8922 148.586C44.2672 149.641 43.5901 150.624 42.8609 151.535C42.1318 152.46 41.3635 153.273 40.5563 153.977L37.6461 152.297C38.1018 151.529 38.512 150.689 38.8766 149.777C39.2542 148.879 39.5927 147.935 39.8922 146.945C40.1917 145.956 40.4456 144.94 40.6539 143.898C40.8753 142.857 41.0576 141.822 41.2008 140.793C41.344 139.764 41.4482 138.755 41.5133 137.766C41.5914 136.763 41.6305 135.812 41.6305 134.914C41.6305 134.211 41.624 133.417 41.6109 132.531C41.6109 131.633 41.5589 130.721 41.4547 129.797C41.3635 128.872 41.2073 127.974 40.9859 127.102C40.7646 126.216 40.4326 125.428 39.9898 124.738C39.5602 124.048 39.0003 123.495 38.3102 123.078C37.6331 122.661 36.7867 122.453 35.7711 122.453C34.8727 122.453 34.0979 122.609 33.4469 122.922C32.8089 123.221 32.262 123.632 31.8063 124.152C31.3635 124.66 31.0055 125.253 30.732 125.93C30.4716 126.607 30.2633 127.323 30.107 128.078C29.9638 128.82 29.8661 129.576 29.8141 130.344C29.775 131.099 29.7555 131.815 29.7555 132.492V137.941H38.1734V141.164H29.7555V148H22.0016V133.703C22.0016 131.659 22.3271 129.758 22.9781 128C23.6292 126.242 24.5471 124.719 25.732 123.43C26.9299 122.128 28.3622 121.112 30.0289 120.383C31.7086 119.641 33.5771 119.27 35.6344 119.27C37.0276 119.27 38.3297 119.471 39.5406 119.875C40.7646 120.266 41.8779 120.812 42.8805 121.516C43.8831 122.206 44.775 123.033 45.5563 123.996C46.3505 124.947 47.0081 125.988 47.5289 127.121C48.0628 128.254 48.4664 129.452 48.7398 130.715C49.0133 131.978 49.137 133.254 49.1109 134.543ZM63.2289 148H56.6273V115.051H59.1664L63.2289 121.906V148ZM78.8703 119.992C78.8703 120.487 78.7727 120.956 78.5773 121.398C78.3951 121.841 78.1411 122.225 77.8156 122.551C77.4901 122.876 77.106 123.137 76.6633 123.332C76.2206 123.514 75.7518 123.605 75.257 123.605C74.7622 123.605 74.2935 123.514 73.8508 123.332C73.4211 123.137 73.0435 122.876 72.718 122.551C72.3925 122.225 72.132 121.841 71.9367 121.398C71.7544 120.956 71.6633 120.487 71.6633 119.992C71.6633 119.497 71.7544 119.035 71.9367 118.605C72.132 118.163 72.3925 117.779 72.718 117.453C73.0435 117.128 73.4211 116.874 73.8508 116.691C74.2935 116.496 74.7622 116.398 75.257 116.398C75.7518 116.398 76.2206 116.496 76.6633 116.691C77.106 116.874 77.4901 117.128 77.8156 117.453C78.1411 117.779 78.3951 118.163 78.5773 118.605C78.7727 119.035 78.8703 119.497 78.8703 119.992ZM78.5773 148H71.9563V125.461H78.5773V148ZM106.738 140.793C106.738 141.783 106.595 142.661 106.309 143.43C106.022 144.198 105.632 144.868 105.137 145.441C104.642 146.001 104.056 146.477 103.379 146.867C102.702 147.245 101.973 147.551 101.191 147.785C100.423 148.02 99.6159 148.189 98.7695 148.293C97.9232 148.397 97.0833 148.449 96.25 148.449C95.1302 148.449 94.1406 148.378 93.2812 148.234C92.4219 148.091 91.6016 147.863 90.8203 147.551C90.0391 147.225 89.2578 146.809 88.4766 146.301C87.7083 145.793 86.849 145.174 85.8984 144.445L89.7461 141.301C90.0977 141.965 90.5599 142.57 91.1328 143.117C91.7188 143.651 92.3242 144.113 92.9492 144.504C93.5742 144.895 94.1797 145.194 94.7656 145.402C95.3516 145.611 95.8268 145.715 96.1914 145.715C96.4909 145.715 96.8294 145.708 97.207 145.695C97.5846 145.669 97.9688 145.63 98.3594 145.578C98.75 145.513 99.1341 145.422 99.5117 145.305C99.8893 145.188 100.221 145.031 100.508 144.836C100.807 144.628 101.042 144.374 101.211 144.074C101.393 143.762 101.484 143.391 101.484 142.961C101.484 142.518 101.367 142.134 101.133 141.809C100.911 141.47 100.618 141.177 100.254 140.93C99.8893 140.682 99.4727 140.474 99.0039 140.305C98.5352 140.135 98.0599 139.986 97.5781 139.855C97.1094 139.725 96.6536 139.615 96.2109 139.523C95.7682 139.419 95.3841 139.322 95.0586 139.23C94.4596 139.061 93.8281 138.892 93.1641 138.723C92.5 138.54 91.8424 138.339 91.1914 138.117C90.5404 137.883 89.9154 137.609 89.3164 137.297C88.7305 136.984 88.2096 136.613 87.7539 136.184C87.3112 135.741 86.9531 135.227 86.6797 134.641C86.4193 134.042 86.2891 133.345 86.2891 132.551C86.2891 131.092 86.5755 129.875 87.1484 128.898C87.7344 127.909 88.5026 127.121 89.4531 126.535C90.4036 125.936 91.4844 125.513 92.6953 125.266C93.9062 125.018 95.1367 124.895 96.3867 124.895C97.2461 124.895 98.151 124.986 99.1016 125.168C100.052 125.337 100.977 125.598 101.875 125.949C102.773 126.288 103.613 126.704 104.395 127.199C105.176 127.694 105.827 128.26 106.348 128.898L102.5 132.062C102.214 131.281 101.836 130.611 101.367 130.051C100.911 129.491 100.41 129.035 99.8633 128.684C99.3294 128.319 98.776 128.052 98.2031 127.883C97.6432 127.714 97.1224 127.629 96.6406 127.629C96.1719 127.629 95.6445 127.648 95.0586 127.688C94.4727 127.727 93.9193 127.837 93.3984 128.02C92.8906 128.202 92.4544 128.482 92.0898 128.859C91.7383 129.224 91.5625 129.732 91.5625 130.383C91.5625 130.852 91.6667 131.255 91.875 131.594C92.0964 131.919 92.3828 132.206 92.7344 132.453C93.0859 132.688 93.4831 132.889 93.9258 133.059C94.3815 133.215 94.8438 133.358 95.3125 133.488C95.7812 133.605 96.237 133.71 96.6797 133.801C97.1224 133.892 97.5195 133.99 97.8711 134.094C98.4701 134.263 99.1016 134.439 99.7656 134.621C100.443 134.79 101.107 134.992 101.758 135.227C102.409 135.448 103.034 135.715 103.633 136.027C104.245 136.327 104.779 136.698 105.234 137.141C105.69 137.583 106.055 138.104 106.328 138.703C106.602 139.289 106.738 139.986 106.738 140.793ZM137.184 135.07C137.184 136.594 136.996 138.182 136.618 139.836C136.253 141.49 135.739 143.111 135.075 144.699C134.411 146.288 133.617 147.779 132.692 149.172C131.768 150.578 130.752 151.789 129.645 152.805L127.165 151.457C127.516 150.806 127.848 150.077 128.161 149.27C128.473 148.462 128.753 147.609 129.001 146.711C129.261 145.799 129.489 144.862 129.684 143.898C129.893 142.935 130.062 141.984 130.192 141.047C130.335 140.096 130.44 139.178 130.505 138.293C130.583 137.395 130.622 136.561 130.622 135.793C130.622 135.285 130.602 134.745 130.563 134.172C130.524 133.586 130.44 133.007 130.309 132.434C130.192 131.848 130.029 131.288 129.821 130.754C129.613 130.22 129.333 129.751 128.981 129.348C128.643 128.944 128.226 128.618 127.731 128.371C127.249 128.124 126.677 128 126.013 128C125.361 128 124.782 128.15 124.274 128.449C123.766 128.736 123.317 129.12 122.927 129.602C122.536 130.07 122.197 130.611 121.911 131.223C121.638 131.835 121.41 132.466 121.227 133.117C121.058 133.755 120.934 134.387 120.856 135.012C120.778 135.637 120.739 136.197 120.739 136.691V148H114.118V117.141H120.72V128.762C121.566 127.525 122.601 126.574 123.825 125.91C125.062 125.233 126.429 124.895 127.927 124.895C129.489 124.895 130.85 125.148 132.009 125.656C133.167 126.164 134.131 126.874 134.899 127.785C135.667 128.684 136.24 129.758 136.618 131.008C136.996 132.245 137.184 133.599 137.184 135.07ZM167.455 148H160.853V145.305C160.072 146.372 159.128 147.167 158.021 147.688C156.927 148.195 155.723 148.449 154.408 148.449C152.689 148.449 151.153 148.143 149.798 147.531C148.444 146.919 147.298 146.086 146.361 145.031C145.423 143.964 144.707 142.714 144.213 141.281C143.718 139.849 143.47 138.312 143.47 136.672C143.47 135.031 143.718 133.495 144.213 132.062C144.707 130.63 145.423 129.387 146.361 128.332C147.298 127.264 148.444 126.424 149.798 125.812C151.153 125.201 152.689 124.895 154.408 124.895C155.28 124.895 156.107 125.025 156.888 125.285C157.683 125.546 158.405 125.917 159.056 126.398C159.72 126.867 160.3 127.44 160.795 128.117C161.302 128.781 161.699 129.523 161.986 130.344L164.916 125.441H167.455V148ZM160.814 136.672C160.814 136.086 160.782 135.467 160.716 134.816C160.664 134.165 160.567 133.521 160.423 132.883C160.28 132.245 160.078 131.639 159.818 131.066C159.571 130.48 159.245 129.966 158.841 129.523C158.451 129.068 157.976 128.71 157.416 128.449C156.856 128.189 156.205 128.059 155.463 128.059C154.72 128.059 154.076 128.195 153.529 128.469C152.982 128.729 152.513 129.087 152.123 129.543C151.732 129.986 151.407 130.5 151.146 131.086C150.899 131.672 150.703 132.284 150.56 132.922C150.417 133.56 150.313 134.204 150.248 134.855C150.196 135.493 150.17 136.099 150.17 136.672C150.17 137.245 150.196 137.857 150.248 138.508C150.313 139.159 150.417 139.803 150.56 140.441C150.703 141.079 150.899 141.691 151.146 142.277C151.407 142.863 151.732 143.384 152.123 143.84C152.513 144.283 152.982 144.641 153.529 144.914C154.076 145.174 154.72 145.305 155.463 145.305C156.14 145.305 156.739 145.168 157.259 144.895C157.793 144.608 158.255 144.23 158.646 143.762C159.05 143.293 159.388 142.759 159.662 142.16C159.935 141.561 160.157 140.943 160.326 140.305C160.495 139.667 160.619 139.035 160.697 138.41C160.775 137.772 160.814 137.193 160.814 136.672ZM199.248 135.07C199.248 136.594 199.06 138.182 198.682 139.836C198.317 141.49 197.803 143.111 197.139 144.699C196.475 146.288 195.681 147.779 194.756 149.172C193.832 150.578 192.816 151.789 191.709 152.805L189.229 151.457C189.58 150.806 189.913 150.077 190.225 149.27C190.538 148.462 190.817 147.609 191.065 146.711C191.325 145.799 191.553 144.862 191.748 143.898C191.957 142.935 192.126 141.984 192.256 141.047C192.399 140.096 192.504 139.178 192.569 138.293C192.647 137.395 192.686 136.561 192.686 135.793C192.686 135.285 192.666 134.745 192.627 134.172C192.588 133.586 192.504 133.007 192.373 132.434C192.256 131.848 192.093 131.288 191.885 130.754C191.677 130.22 191.397 129.751 191.045 129.348C190.707 128.944 190.29 128.618 189.795 128.371C189.314 128.124 188.741 128 188.077 128C187.426 128 186.846 128.15 186.338 128.449C185.83 128.736 185.381 129.12 184.991 129.602C184.6 130.07 184.261 130.611 183.975 131.223C183.702 131.835 183.474 132.466 183.291 133.117C183.122 133.755 182.998 134.387 182.92 135.012C182.842 135.637 182.803 136.197 182.803 136.691V148H176.182V125.441H178.721L181.748 130.695C182.113 129.823 182.569 129.029 183.116 128.312C183.663 127.596 184.281 126.984 184.971 126.477C185.661 125.969 186.423 125.578 187.256 125.305C188.103 125.031 189.014 124.895 189.991 124.895C191.553 124.895 192.914 125.148 194.073 125.656C195.232 126.164 196.195 126.874 196.963 127.785C197.732 128.684 198.304 129.758 198.682 131.008C199.06 132.245 199.248 133.599 199.248 135.07Z" fill="white"/>
<path d="M88.9561 170.025C89.1494 170.29 89.2461 170.674 89.2461 171.175C89.2461 171.676 89.2246 172.077 89.1816 172.378C89.1387 172.672 89.0706 172.94 88.9775 173.184C88.7627 173.728 88.4798 174 88.1289 174H79.4277C79.9792 173.706 80.3444 173.424 80.5234 173.151C80.86 172.643 81.0283 171.998 81.0283 171.218C81.0212 169.306 81.0176 167.576 81.0176 166.029V160.379C81.0176 159.312 80.8493 158.538 80.5127 158.059C80.3838 157.887 80.2298 157.722 80.0508 157.564H88.1289C88.6159 157.736 88.9489 158.338 89.1279 159.369C89.1781 159.656 89.2031 159.935 89.2031 160.207C89.2031 160.766 89.1208 161.21 88.9561 161.539L88.376 160.379C87.9893 159.62 87.4342 159.111 86.7109 158.854C86.3099 158.71 85.8587 158.639 85.3574 158.639C84.8561 158.639 84.498 158.657 84.2832 158.692C84.0684 158.721 83.9036 158.796 83.7891 158.918C83.6029 159.126 83.5098 159.523 83.5098 160.11C83.5098 160.69 83.5241 161.095 83.5527 161.324C83.5814 161.546 83.6494 161.729 83.7568 161.872C83.9788 162.151 84.4479 162.291 85.1641 162.291H88.5371C88.3724 162.706 88.2041 163 88.0322 163.172C87.6885 163.516 87.223 163.688 86.6357 163.688C86.4066 163.688 86.1882 163.662 85.9805 163.612C85.5938 163.519 85.2536 163.473 84.96 163.473C84.6663 163.473 84.4229 163.501 84.2295 163.559C84.0433 163.609 83.8965 163.691 83.7891 163.806C83.6029 164.006 83.5098 164.368 83.5098 164.891V170.015C83.5098 171.361 83.585 172.16 83.7354 172.41C83.8857 172.661 84.0684 172.811 84.2832 172.861C84.498 172.904 84.8561 172.926 85.3574 172.926C85.8587 172.926 86.3135 172.854 86.7217 172.711C87.1299 172.568 87.4701 172.367 87.7422 172.109C88.0215 171.852 88.2507 171.547 88.4297 171.196C88.6087 170.838 88.7842 170.448 88.9561 170.025ZM93.5107 163.15C93.3818 163.465 93.3174 163.813 93.3174 164.192C93.3174 164.565 93.346 164.898 93.4033 165.191C93.4606 165.478 93.5394 165.814 93.6396 166.201L94.7998 170.326L95.208 171.647C95.6305 170.38 95.9098 169.524 96.0459 169.08L96.4326 167.77C96.8551 166.33 97.0664 165.438 97.0664 165.095C97.0664 164.751 97.0485 164.5 97.0127 164.343C96.984 164.178 96.9411 164.031 96.8838 163.902C96.8122 163.709 96.6725 163.458 96.4648 163.15H100.375C99.8451 163.881 99.4906 164.429 99.3115 164.794L98.9141 165.61C98.8496 165.739 98.7601 165.925 98.6455 166.169C97.2419 169.37 96.54 171.515 96.54 172.604C96.54 173.098 96.6331 173.563 96.8193 174H92.9521C93.124 173.728 93.2243 173.474 93.2529 173.237C93.2887 172.994 93.3066 172.747 93.3066 172.496C93.3066 172.238 93.2422 171.869 93.1133 171.39C92.9844 170.91 92.8161 170.366 92.6084 169.757C92.4007 169.148 92.1608 168.507 91.8887 167.834C91.6237 167.154 91.3516 166.506 91.0723 165.89C90.4421 164.507 89.9336 163.594 89.5469 163.15H93.5107ZM109.538 170.348C109.796 170.52 109.925 170.82 109.925 171.25C109.925 171.673 109.868 172.045 109.753 172.367C109.638 172.689 109.438 172.99 109.151 173.27C108.507 173.9 107.526 174.215 106.208 174.215C104.675 174.215 103.508 173.649 102.706 172.518C101.997 171.508 101.643 170.144 101.643 168.425C101.643 166.692 102.122 165.331 103.082 164.343C103.992 163.405 105.223 162.936 106.777 162.936C107.859 162.936 108.704 163.251 109.312 163.881C109.792 164.382 110.032 164.962 110.032 165.621C110.032 166.273 109.903 166.864 109.646 167.394C109.395 167.916 109.022 168.368 108.528 168.747C107.511 169.535 106.09 169.95 104.264 169.993C104.414 171.433 104.865 172.396 105.617 172.883C105.889 173.055 106.251 173.141 106.702 173.141C107.153 173.141 107.633 172.904 108.142 172.432C108.65 171.959 109.116 171.264 109.538 170.348ZM104.199 168.973C106.462 168.822 107.594 167.727 107.594 165.686C107.594 164.919 107.365 164.404 106.906 164.139C106.749 164.053 106.541 164.01 106.283 164.01C106.025 164.01 105.764 164.089 105.499 164.246C105.241 164.404 105.016 164.661 104.822 165.02C104.407 165.8 104.199 167.007 104.199 168.64V168.973ZM112.396 174C112.725 172.868 112.89 170.924 112.89 168.167C112.89 166.205 112.718 164.866 112.374 164.149C112.288 163.97 112.191 163.802 112.084 163.645L111.729 163.15H115.457C115.35 163.508 115.278 163.845 115.242 164.16L115.156 164.934C116.023 163.602 117.126 162.936 118.465 162.936C119.331 162.936 120.008 163.272 120.495 163.945C120.968 164.604 121.204 165.496 121.204 166.62V167.77C121.204 169.739 121.222 170.942 121.258 171.379C121.294 171.816 121.322 172.149 121.344 172.378C121.365 172.607 121.39 172.811 121.419 172.99C121.469 173.327 121.544 173.663 121.645 174H118.497C118.826 172.868 118.991 170.924 118.991 168.167C118.991 167.064 118.92 166.309 118.776 165.9C118.64 165.492 118.476 165.202 118.282 165.03C118.089 164.851 117.835 164.762 117.52 164.762C116.939 164.762 116.413 164.991 115.94 165.449C115.532 165.843 115.221 166.344 115.006 166.953C114.992 167.146 114.984 167.347 114.984 167.555V168.167C114.984 170.924 115.149 172.868 115.479 174H112.396ZM127.521 158.854C127.37 159.405 127.295 160.067 127.295 160.841C127.295 161.607 127.309 162.098 127.338 162.312C127.374 162.527 127.427 162.699 127.499 162.828C127.635 163.043 127.9 163.15 128.294 163.15H131.173C131.173 163.551 131.076 163.859 130.883 164.074C130.532 164.461 130.102 164.654 129.594 164.654C129.343 164.654 129.121 164.618 128.928 164.547C128.577 164.404 128.305 164.332 128.111 164.332C127.918 164.332 127.76 164.371 127.639 164.45C127.517 164.522 127.42 164.629 127.349 164.772C127.22 165.03 127.155 165.592 127.155 166.459C127.155 167.326 127.18 168.214 127.23 169.123C127.288 170.033 127.424 170.795 127.639 171.411C127.854 172.02 128.179 172.478 128.616 172.786C129.053 173.094 129.655 173.248 130.421 173.248C130.421 173.47 130.271 173.735 129.97 174.043C129.891 174.129 129.823 174.186 129.766 174.215C128.498 174.215 127.549 174.064 126.919 173.764C126.196 173.406 125.68 172.768 125.372 171.852C125.064 170.921 124.91 169.542 124.91 167.716C124.91 166.119 124.867 165.177 124.781 164.891C124.695 164.597 124.617 164.404 124.545 164.311C124.459 164.203 124.251 164.071 123.922 163.913C124.366 163.576 124.806 162.95 125.243 162.033L125.78 160.905C126.16 160.046 126.482 159.491 126.747 159.24C127.019 158.982 127.277 158.854 127.521 158.854ZM139.058 162.517C139.251 162.946 139.348 163.38 139.348 163.816C139.348 164.253 139.326 164.615 139.283 164.901C139.247 165.188 139.19 165.464 139.111 165.729C138.932 166.33 138.678 166.792 138.349 167.114C138.127 166.004 137.883 165.285 137.618 164.955C137.36 164.626 137.099 164.404 136.834 164.289C136.576 164.174 136.3 164.117 136.007 164.117C135.713 164.117 135.473 164.146 135.287 164.203C135.101 164.26 134.94 164.343 134.804 164.45C134.496 164.687 134.342 164.955 134.342 165.256C134.342 165.557 134.417 165.818 134.567 166.04C134.718 166.255 134.915 166.459 135.158 166.652C135.409 166.839 135.692 167.021 136.007 167.2L136.974 167.748C137.804 168.214 138.374 168.6 138.682 168.908C139.29 169.517 139.595 170.158 139.595 170.831C139.595 171.712 139.294 172.453 138.692 173.055C137.933 173.828 136.795 174.215 135.276 174.215C133.894 174.215 132.856 173.893 132.161 173.248C131.961 173.062 131.817 172.876 131.731 172.689C131.789 172.152 132.029 171.647 132.451 171.175C132.859 170.716 133.257 170.451 133.644 170.38C133.615 170.473 133.601 170.613 133.601 170.799C133.601 170.985 133.654 171.218 133.762 171.497C133.869 171.769 134.023 172.023 134.224 172.26C134.675 172.804 135.183 173.076 135.749 173.076C136.315 173.076 136.73 172.947 136.995 172.689C137.26 172.432 137.393 172.138 137.393 171.809C137.393 171.479 137.317 171.203 137.167 170.981C137.017 170.759 136.816 170.552 136.565 170.358C136.322 170.165 136.043 169.979 135.728 169.8L134.761 169.252C133.937 168.765 133.371 168.35 133.063 168.006C132.448 167.318 132.14 166.57 132.14 165.761C132.14 164.909 132.498 164.217 133.214 163.688C133.894 163.186 134.743 162.936 135.76 162.936L137.65 163.064C138.109 163.064 138.427 163.011 138.606 162.903C138.785 162.789 138.936 162.66 139.058 162.517Z" fill="white"/>
<path d="M51.9375 185.258C51.9375 184.753 51.776 184.349 51.4531 184.047H54.2266C53.9089 184.323 53.651 184.708 53.4531 185.203C53.3854 185.37 53.3177 185.549 53.25 185.742C53.1823 185.935 53.1042 186.208 53.0156 186.562L52.7344 187.781C52.625 188.25 52.513 188.76 52.3984 189.312C51.7995 192.177 51.4609 193.779 51.3828 194.117C51.3099 194.451 51.2734 194.771 51.2734 195.078C51.2734 195.38 51.3411 195.69 51.4766 196.008L48.7422 196C48.8672 195.807 48.9401 195.628 48.9609 195.461C48.987 195.289 49 195.081 49 194.836C49 194.591 48.9583 194.227 48.875 193.742C48.7917 193.258 48.6823 192.706 48.5469 192.086L47.5547 187.867C46.763 191.357 46.3125 193.354 46.2031 193.859C46.099 194.365 46.0469 194.768 46.0469 195.07C46.0469 195.372 46.112 195.685 46.2422 196.008L43.5078 196C43.6797 195.724 43.7656 195.354 43.7656 194.891C43.7656 194.12 43.4219 192.328 42.7344 189.516C42.0208 186.568 41.4141 184.745 40.9141 184.047H43.6875C43.5938 184.276 43.5469 184.552 43.5469 184.875C43.5469 185.193 43.5729 185.542 43.625 185.922C43.6823 186.302 43.7552 186.732 43.8438 187.211C43.9375 187.69 44.0417 188.203 44.1562 188.75L45.2188 193.422C45.3125 193.021 45.4115 192.573 45.5156 192.078C45.8073 190.661 46.0052 189.669 46.1094 189.102L46.375 187.609C46.5312 186.693 46.6094 186.073 46.6094 185.75C46.6094 185.427 46.5885 185.117 46.5469 184.82C46.5104 184.523 46.4115 184.266 46.25 184.047H49.1719C48.9531 184.458 48.8438 184.93 48.8438 185.461C48.8438 185.857 48.9688 186.659 49.2188 187.867L50.125 192.109L50.4531 193.523L51.1094 190.398C51.2188 189.836 51.3229 189.281 51.4219 188.734L51.6875 187.219C51.8542 186.224 51.9375 185.57 51.9375 185.258ZM60.125 193.344C60.3125 193.469 60.4062 193.688 60.4062 194C60.4062 194.307 60.3646 194.578 60.2812 194.812C60.1979 195.047 60.0521 195.266 59.8438 195.469C59.375 195.927 58.6615 196.156 57.7031 196.156C56.5885 196.156 55.7396 195.745 55.1562 194.922C54.6406 194.188 54.3828 193.195 54.3828 191.945C54.3828 190.685 54.7318 189.695 55.4297 188.977C56.0911 188.294 56.987 187.953 58.1172 187.953C58.9036 187.953 59.5182 188.182 59.9609 188.641C60.3099 189.005 60.4844 189.427 60.4844 189.906C60.4844 190.38 60.3906 190.81 60.2031 191.195C60.0208 191.576 59.75 191.904 59.3906 192.18C58.651 192.753 57.6172 193.055 56.2891 193.086C56.3984 194.133 56.7266 194.833 57.2734 195.188C57.4714 195.312 57.7344 195.375 58.0625 195.375C58.3906 195.375 58.7396 195.203 59.1094 194.859C59.4792 194.516 59.8177 194.01 60.125 193.344ZM56.2422 192.344C57.888 192.234 58.7109 191.438 58.7109 189.953C58.7109 189.396 58.5443 189.021 58.2109 188.828C58.0964 188.766 57.9453 188.734 57.7578 188.734C57.5703 188.734 57.3802 188.792 57.1875 188.906C57 189.021 56.8359 189.208 56.6953 189.469C56.3932 190.036 56.2422 190.914 56.2422 192.102V192.344ZM73.875 183.5C74.026 183.714 74.1016 184.042 74.1016 184.484C74.1016 184.922 74.0859 185.279 74.0547 185.555C74.0286 185.826 73.987 186.089 73.9297 186.344C73.8047 186.917 73.6302 187.349 73.4062 187.641C73.2135 186.635 72.9635 185.917 72.6562 185.484C72.3333 185.047 71.9115 184.828 71.3906 184.828C70.875 184.828 70.4714 184.927 70.1797 185.125C69.888 185.323 69.6641 185.583 69.5078 185.906C69.2474 186.443 69.1172 187.234 69.1172 188.281C69.1172 189.323 69.2344 190.279 69.4688 191.148C69.7083 192.013 70.0469 192.758 70.4844 193.383C71.4062 194.711 72.6068 195.375 74.0859 195.375C74.0651 195.609 73.9427 195.812 73.7188 195.984C73.651 196.036 73.5781 196.068 73.5 196.078C71.6094 196.078 70.0677 195.383 68.875 193.992C67.6094 192.513 66.9766 190.497 66.9766 187.945C66.9766 186.612 67.3672 185.609 68.1484 184.938C68.8411 184.344 69.7891 184.047 70.9922 184.047L72.2969 184.062C72.9115 184.062 73.3438 183.974 73.5938 183.797C73.6979 183.719 73.7917 183.62 73.875 183.5ZM75.6094 196C75.849 195.177 75.9688 193.763 75.9688 191.758C75.9688 190.331 75.8542 189.357 75.625 188.836C75.5312 188.622 75.3646 188.38 75.125 188.109H77.8984C77.8047 188.438 77.7292 188.888 77.6719 189.461C78.1615 188.846 78.8438 188.411 79.7188 188.156C80.0938 188.047 80.3672 187.875 80.5391 187.641C80.7109 188.052 80.7969 188.406 80.7969 188.703C80.7969 189 80.7812 189.276 80.75 189.531C80.7188 189.781 80.6719 190.026 80.6094 190.266C80.474 190.781 80.2943 191.182 80.0703 191.469C79.8776 190.453 79.5781 189.859 79.1719 189.688C78.7031 189.484 78.2448 189.76 77.7969 190.516C77.7031 190.672 77.625 190.839 77.5625 191.016C77.5573 191.135 77.5547 191.258 77.5547 191.383C77.5547 191.508 77.5547 191.633 77.5547 191.758C77.5547 193.763 77.6745 195.177 77.9141 196H75.6094ZM87.6562 191.828L87.6328 193.328C87.6328 194.26 87.7188 194.896 87.8906 195.234C87.9948 195.438 88.1172 195.594 88.2578 195.703L88.625 196H86.3594L86.1172 195.094C85.5286 195.802 84.6901 196.156 83.6016 196.156C82.9818 196.156 82.4818 195.948 82.1016 195.531C81.7682 195.156 81.6016 194.714 81.6016 194.203C81.6016 193.693 81.7214 193.247 81.9609 192.867C82.2057 192.487 82.526 192.172 82.9219 191.922C83.7031 191.438 84.6849 191.185 85.8672 191.164V191.078C85.8672 189.812 85.6719 189.07 85.2812 188.852C85.1406 188.773 84.9583 188.734 84.7344 188.734C84.5156 188.734 84.2969 188.807 84.0781 188.953C83.8594 189.099 83.6615 189.286 83.4844 189.516C83.1302 189.979 82.8776 190.526 82.7266 191.156C82.263 190.88 82.0312 190.352 82.0312 189.57C82.0312 189.253 82.0729 188.896 82.1562 188.5C82.3542 188.5 82.5417 188.471 82.7188 188.414L83.3203 188.227C83.9089 188.044 84.4844 187.953 85.0469 187.953C85.6094 187.953 86.0573 188.036 86.3906 188.203C86.7292 188.37 86.9922 188.617 87.1797 188.945C87.4974 189.503 87.6562 190.464 87.6562 191.828ZM83.2891 194.359C83.2891 194.682 83.362 194.932 83.5078 195.109C83.6589 195.286 83.8464 195.375 84.0703 195.375C84.2943 195.375 84.5104 195.318 84.7188 195.203C84.9271 195.083 85.1146 194.922 85.2812 194.719C85.6719 194.255 85.8672 193.711 85.8672 193.086V191.93C85.138 191.997 84.5365 192.24 84.0625 192.656C83.5469 193.104 83.2891 193.672 83.2891 194.359ZM91.6562 188.109C91.5625 188.339 91.5156 188.591 91.5156 188.867C91.5156 189.138 91.5365 189.38 91.5781 189.594C91.6198 189.802 91.6771 190.047 91.75 190.328L92.5938 193.328L92.8906 194.289C93.1979 193.367 93.401 192.745 93.5 192.422L93.7812 191.469C94.0885 190.422 94.2422 189.773 94.2422 189.523C94.2422 189.273 94.2292 189.091 94.2031 188.977C94.1823 188.857 94.151 188.75 94.1094 188.656C94.0573 188.516 93.9557 188.333 93.8047 188.109H96.6484C96.263 188.641 96.0052 189.039 95.875 189.305L95.5859 189.898C95.5391 189.992 95.474 190.128 95.3906 190.305C94.3698 192.633 93.8594 194.193 93.8594 194.984C93.8594 195.344 93.9271 195.682 94.0625 196H91.25C91.375 195.802 91.4479 195.617 91.4688 195.445C91.4948 195.268 91.5078 195.089 91.5078 194.906C91.5078 194.719 91.4609 194.451 91.3672 194.102C91.2734 193.753 91.151 193.357 91 192.914C90.849 192.471 90.6745 192.005 90.4766 191.516C90.2839 191.021 90.0859 190.549 89.8828 190.102C89.4245 189.096 89.0547 188.432 88.7734 188.109H91.6562ZM103.312 193.344C103.5 193.469 103.594 193.688 103.594 194C103.594 194.307 103.552 194.578 103.469 194.812C103.385 195.047 103.24 195.266 103.031 195.469C102.562 195.927 101.849 196.156 100.891 196.156C99.776 196.156 98.9271 195.745 98.3438 194.922C97.8281 194.188 97.5703 193.195 97.5703 191.945C97.5703 190.685 97.9193 189.695 98.6172 188.977C99.2786 188.294 100.174 187.953 101.305 187.953C102.091 187.953 102.706 188.182 103.148 188.641C103.497 189.005 103.672 189.427 103.672 189.906C103.672 190.38 103.578 190.81 103.391 191.195C103.208 191.576 102.938 191.904 102.578 192.18C101.839 192.753 100.805 193.055 99.4766 193.086C99.5859 194.133 99.9141 194.833 100.461 195.188C100.659 195.312 100.922 195.375 101.25 195.375C101.578 195.375 101.927 195.203 102.297 194.859C102.667 194.516 103.005 194.01 103.312 193.344ZM99.4297 192.344C101.076 192.234 101.898 191.438 101.898 189.953C101.898 189.396 101.732 189.021 101.398 188.828C101.284 188.766 101.133 188.734 100.945 188.734C100.758 188.734 100.568 188.792 100.375 188.906C100.188 189.021 100.023 189.208 99.8828 189.469C99.5807 190.036 99.4297 190.914 99.4297 192.102V192.344ZM113.516 188.578C113.12 188.578 112.922 188.935 112.922 189.648V190.633C112.922 192.445 112.94 193.565 112.977 193.992C113.018 194.414 113.057 194.708 113.094 194.875C113.135 195.042 113.19 195.19 113.258 195.32C113.367 195.534 113.586 195.76 113.914 196H110.594C110.786 195.615 110.904 195.286 110.945 195.016C110.987 194.745 111.018 194.458 111.039 194.156C111.081 193.542 111.102 192.716 111.102 191.68C111.102 190.424 111.081 189.279 111.039 188.242L110.953 186.094C110.932 185.552 110.885 185.174 110.812 184.961C110.698 184.622 110.51 184.318 110.25 184.047H114.617C115.794 184.047 116.646 184.172 117.172 184.422C117.729 184.682 118.008 185.128 118.008 185.758C118.008 186.529 117.677 187.167 117.016 187.672C116.234 188.276 115.068 188.578 113.516 188.578ZM115.461 187.148C115.628 186.982 115.75 186.807 115.828 186.625C115.906 186.438 115.945 186.266 115.945 186.109C115.945 185.948 115.922 185.789 115.875 185.633C115.833 185.477 115.747 185.339 115.617 185.219C115.326 184.958 114.826 184.828 114.117 184.828C113.69 184.828 113.411 184.88 113.281 184.984C113.042 185.182 112.922 185.57 112.922 186.148C112.922 186.799 112.974 187.203 113.078 187.359C113.182 187.51 113.302 187.609 113.438 187.656C113.573 187.698 113.779 187.719 114.055 187.719C114.336 187.719 114.599 187.664 114.844 187.555C115.094 187.445 115.299 187.31 115.461 187.148ZM124.375 193.344C124.562 193.469 124.656 193.688 124.656 194C124.656 194.307 124.615 194.578 124.531 194.812C124.448 195.047 124.302 195.266 124.094 195.469C123.625 195.927 122.911 196.156 121.953 196.156C120.839 196.156 119.99 195.745 119.406 194.922C118.891 194.188 118.633 193.195 118.633 191.945C118.633 190.685 118.982 189.695 119.68 188.977C120.341 188.294 121.237 187.953 122.367 187.953C123.154 187.953 123.768 188.182 124.211 188.641C124.56 189.005 124.734 189.427 124.734 189.906C124.734 190.38 124.641 190.81 124.453 191.195C124.271 191.576 124 191.904 123.641 192.18C122.901 192.753 121.867 193.055 120.539 193.086C120.648 194.133 120.977 194.833 121.523 195.188C121.721 195.312 121.984 195.375 122.312 195.375C122.641 195.375 122.99 195.203 123.359 194.859C123.729 194.516 124.068 194.01 124.375 193.344ZM120.492 192.344C122.138 192.234 122.961 191.438 122.961 189.953C122.961 189.396 122.794 189.021 122.461 188.828C122.346 188.766 122.195 188.734 122.008 188.734C121.82 188.734 121.63 188.792 121.438 188.906C121.25 189.021 121.086 189.208 120.945 189.469C120.643 190.036 120.492 190.914 120.492 192.102V192.344ZM126.562 196C126.802 195.177 126.922 193.763 126.922 191.758C126.922 190.331 126.807 189.357 126.578 188.836C126.484 188.622 126.318 188.38 126.078 188.109H128.852C128.758 188.438 128.682 188.888 128.625 189.461C129.115 188.846 129.797 188.411 130.672 188.156C131.047 188.047 131.32 187.875 131.492 187.641C131.664 188.052 131.75 188.406 131.75 188.703C131.75 189 131.734 189.276 131.703 189.531C131.672 189.781 131.625 190.026 131.562 190.266C131.427 190.781 131.247 191.182 131.023 191.469C130.831 190.453 130.531 189.859 130.125 189.688C129.656 189.484 129.198 189.76 128.75 190.516C128.656 190.672 128.578 190.839 128.516 191.016C128.51 191.135 128.508 191.258 128.508 191.383C128.508 191.508 128.508 191.633 128.508 191.758C128.508 193.763 128.628 195.177 128.867 196H126.562ZM133 196C133.245 195.161 133.367 193.469 133.367 190.922C133.367 190.474 133.362 190.185 133.352 190.055C133.341 189.919 133.294 189.844 133.211 189.828C132.867 189.75 132.661 189.552 132.594 189.234C132.578 189.151 132.557 189.062 132.531 188.969H133.031C133.177 188.969 133.266 188.938 133.297 188.875C133.333 188.807 133.352 188.622 133.352 188.32C133.352 187.732 133.328 187.154 133.281 186.586C133.24 186.018 133.263 185.589 133.352 185.297C133.44 185.005 133.578 184.755 133.766 184.547C134.161 184.109 134.721 183.891 135.445 183.891C135.716 183.891 135.964 183.917 136.188 183.969C136.411 184.021 136.628 184.047 136.836 184.047C137.044 184.047 137.227 184.018 137.383 183.961C137.539 183.904 137.677 183.776 137.797 183.578C137.865 183.656 137.927 183.797 137.984 184C138.042 184.198 138.07 184.417 138.07 184.656C138.07 184.891 138.052 185.141 138.016 185.406C137.984 185.667 137.938 185.922 137.875 186.172C137.745 186.693 137.562 187.107 137.328 187.414C137.203 186.352 137.086 185.69 136.977 185.43C136.872 185.169 136.755 184.992 136.625 184.898C136.5 184.799 136.312 184.75 136.062 184.75C135.812 184.75 135.589 184.883 135.391 185.148C135.198 185.409 135.102 185.768 135.102 186.227V186.477C135.102 187.518 135.13 188.148 135.188 188.367C135.245 188.581 135.323 188.721 135.422 188.789C135.521 188.857 135.661 188.891 135.844 188.891H137.281C137.151 189.359 136.99 189.661 136.797 189.797C136.703 189.87 136.596 189.906 136.477 189.906C136.362 189.906 136.271 189.898 136.203 189.883C136.135 189.867 136.07 189.849 136.008 189.828C135.852 189.776 135.708 189.75 135.578 189.75C135.453 189.75 135.357 189.768 135.289 189.805C135.221 189.836 135.167 189.883 135.125 189.945C135.062 190.049 135.031 190.216 135.031 190.445V191.781C135.031 193.401 135.089 194.414 135.203 194.82C135.286 195.122 135.393 195.362 135.523 195.539L135.852 196H133ZM144.031 193.344C144.219 193.469 144.312 193.688 144.312 194C144.312 194.307 144.271 194.578 144.188 194.812C144.104 195.047 143.958 195.266 143.75 195.469C143.281 195.927 142.568 196.156 141.609 196.156C140.495 196.156 139.646 195.745 139.062 194.922C138.547 194.188 138.289 193.195 138.289 191.945C138.289 190.685 138.638 189.695 139.336 188.977C139.997 188.294 140.893 187.953 142.023 187.953C142.81 187.953 143.424 188.182 143.867 188.641C144.216 189.005 144.391 189.427 144.391 189.906C144.391 190.38 144.297 190.81 144.109 191.195C143.927 191.576 143.656 191.904 143.297 192.18C142.557 192.753 141.523 193.055 140.195 193.086C140.305 194.133 140.633 194.833 141.18 195.188C141.378 195.312 141.641 195.375 141.969 195.375C142.297 195.375 142.646 195.203 143.016 194.859C143.385 194.516 143.724 194.01 144.031 193.344ZM140.148 192.344C141.794 192.234 142.617 191.438 142.617 189.953C142.617 189.396 142.451 189.021 142.117 188.828C142.003 188.766 141.852 188.734 141.664 188.734C141.477 188.734 141.286 188.792 141.094 188.906C140.906 189.021 140.742 189.208 140.602 189.469C140.299 190.036 140.148 190.914 140.148 192.102V192.344ZM151.117 187.641C151.247 187.953 151.312 188.297 151.312 188.672C151.312 189.042 151.299 189.349 151.273 189.594C151.247 189.839 151.208 190.076 151.156 190.305C151.047 190.789 150.878 191.177 150.648 191.469C150.419 190.052 150.047 189.193 149.531 188.891C149.349 188.786 149.151 188.734 148.938 188.734C148.729 188.734 148.547 188.784 148.391 188.883C148.234 188.982 148.102 189.125 147.992 189.312C147.768 189.688 147.656 190.174 147.656 190.773C147.656 191.367 147.716 191.88 147.836 192.312C147.956 192.74 148.112 193.125 148.305 193.469C148.503 193.807 148.724 194.102 148.969 194.352C149.219 194.596 149.469 194.802 149.719 194.969C150.224 195.292 150.672 195.453 151.062 195.453C151.042 195.589 150.974 195.721 150.859 195.852C150.745 195.982 150.62 196.083 150.484 196.156C149.932 196.156 149.299 195.969 148.586 195.594C147.258 194.891 146.362 193.865 145.898 192.516C145.727 192.021 145.641 191.516 145.641 191C145.641 190.479 145.701 190.042 145.82 189.688C145.94 189.328 146.115 189.021 146.344 188.766C146.812 188.224 147.464 187.953 148.297 187.953C148.578 187.953 148.852 187.971 149.117 188.008C149.617 188.076 149.966 188.109 150.164 188.109C150.367 188.109 150.547 188.083 150.703 188.031C150.859 187.974 150.997 187.844 151.117 187.641ZM155.141 184.984C155.031 185.385 154.977 185.867 154.977 186.43C154.977 186.987 154.987 187.344 155.008 187.5C155.034 187.656 155.073 187.781 155.125 187.875C155.224 188.031 155.417 188.109 155.703 188.109H157.797C157.797 188.401 157.727 188.625 157.586 188.781C157.331 189.062 157.018 189.203 156.648 189.203C156.466 189.203 156.305 189.177 156.164 189.125C155.909 189.021 155.711 188.969 155.57 188.969C155.43 188.969 155.315 188.997 155.227 189.055C155.138 189.107 155.068 189.185 155.016 189.289C154.922 189.477 154.875 189.885 154.875 190.516C154.875 191.146 154.893 191.792 154.93 192.453C154.971 193.115 155.07 193.669 155.227 194.117C155.383 194.56 155.62 194.893 155.938 195.117C156.255 195.341 156.693 195.453 157.25 195.453C157.25 195.615 157.141 195.807 156.922 196.031C156.865 196.094 156.815 196.135 156.773 196.156C155.852 196.156 155.161 196.047 154.703 195.828C154.177 195.568 153.802 195.104 153.578 194.438C153.354 193.76 153.242 192.758 153.242 191.43C153.242 190.268 153.211 189.583 153.148 189.375C153.086 189.161 153.029 189.021 152.977 188.953C152.914 188.875 152.763 188.779 152.523 188.664C152.846 188.419 153.167 187.964 153.484 187.297L153.875 186.477C154.151 185.852 154.385 185.448 154.578 185.266C154.776 185.078 154.964 184.984 155.141 184.984ZM161.094 186.008C160.99 186.18 160.862 186.326 160.711 186.445C160.56 186.56 160.388 186.617 160.195 186.617C160.003 186.617 159.831 186.56 159.68 186.445C159.529 186.326 159.401 186.18 159.297 186.008C159.083 185.654 158.977 185.279 158.977 184.883C158.977 184.404 159.195 184.083 159.633 183.922C159.789 183.865 159.979 183.836 160.203 183.836C160.823 183.836 161.208 184.055 161.359 184.492C161.406 184.617 161.43 184.758 161.43 184.914C161.43 185.065 161.401 185.242 161.344 185.445C161.286 185.648 161.203 185.836 161.094 186.008ZM158.977 196C159.216 195.177 159.336 193.763 159.336 191.758C159.336 190.346 159.211 189.375 158.961 188.844C158.898 188.708 158.828 188.583 158.75 188.469L158.492 188.109H161.266C161.036 188.969 160.922 190.294 160.922 192.086C160.922 193.872 161.042 195.177 161.281 196H158.977ZM166.734 188.734C166.266 188.734 165.927 188.969 165.719 189.438C165.516 189.906 165.414 190.695 165.414 191.805C165.414 194.185 165.854 195.375 166.734 195.375C167.203 195.375 167.539 195.057 167.742 194.422C167.951 193.786 168.055 192.914 168.055 191.805C168.055 190.695 167.951 189.906 167.742 189.438C167.539 188.969 167.203 188.734 166.734 188.734ZM163.445 191.508C163.445 189.138 164.542 187.953 166.734 187.953C168.927 187.953 170.023 189.138 170.023 191.508C170.023 192.945 169.721 194.083 169.117 194.922C168.529 195.745 167.734 196.156 166.734 196.156C165.734 196.156 164.94 195.745 164.352 194.922C163.747 194.083 163.445 192.945 163.445 191.508ZM171.984 196C172.224 195.177 172.344 193.763 172.344 191.758C172.344 190.331 172.219 189.357 171.969 188.836C171.906 188.706 171.836 188.583 171.758 188.469L171.5 188.109H174.211C174.133 188.37 174.081 188.615 174.055 188.844L173.992 189.406C174.622 188.438 175.424 187.953 176.398 187.953C177.029 187.953 177.521 188.198 177.875 188.688C178.219 189.167 178.391 189.815 178.391 190.633V191.469C178.391 192.901 178.404 193.776 178.43 194.094C178.456 194.411 178.477 194.654 178.492 194.82C178.508 194.987 178.526 195.135 178.547 195.266C178.583 195.51 178.638 195.755 178.711 196H176.422C176.661 195.177 176.781 193.763 176.781 191.758C176.781 190.956 176.729 190.406 176.625 190.109C176.526 189.812 176.406 189.602 176.266 189.477C176.125 189.346 175.94 189.281 175.711 189.281C175.289 189.281 174.906 189.448 174.562 189.781C174.266 190.068 174.039 190.432 173.883 190.875C173.872 191.016 173.867 191.161 173.867 191.312V191.758C173.867 193.763 173.987 195.177 174.227 196H171.984Z" fill="white"/>
<path d="M0 165.667L72.0184 164C73.107 163.975 74 165.102 74 166.5C74 167.916 73.0852 169.049 71.9832 168.998L0 165.667Z" fill="white"/>
<path d="M220 165.667L147.982 164C146.893 163.975 146 165.102 146 166.5C146 167.916 146.915 169.049 148.017 168.998L220 165.667Z" fill="white"/>
</svg>
